<svg width="12" height="12" viewBox="0 0 12 12" fill="none" xmlns="http://www.w3.org/2000/svg">
<path d="M7.09953 6.00009L11.7722 1.32729C12.0763 1.02334 12.0763 0.531906 11.7722 0.22796C11.4682 -0.0759865 10.9768 -0.0759865 10.6729 0.22796L6.00005 4.90076L1.3274 0.22796C1.02331 -0.0759865 0.532013 -0.0759865 0.228066 0.22796C-0.0760221 0.531906 -0.0760221 1.02334 0.228066 1.32729L4.90072 6.00009L0.228066 10.6729C-0.0760221 10.9768 -0.0760221 11.4683 0.228066 11.7722C0.379541 11.9238 0.578708 12 0.777732 12C0.976756 12 1.17578 11.9238 1.3274 11.7722L6.00005 7.09942L10.6729 11.7722C10.8245 11.9238 11.0235 12 11.2225 12C11.4215 12 11.6206 11.9238 11.7722 11.7722C12.0763 11.4683 12.0763 10.9768 11.7722 10.6729L7.09953 6.00009Z" fill="#B80B0B"/>
</svg>
