<svg width="18" height="18" viewBox="0 0 18 18" fill="none" xmlns="http://www.w3.org/2000/svg">
<path d="M8.99999 0C5.63156 0 2.89111 2.74041 2.89111 6.10884C2.89111 7.46244 3.68803 9.52102 5.39909 12.5872C6.56668 14.6794 7.72888 16.4466 7.77791 16.5211L8.61793 17.7943C8.70262 17.9227 8.84612 18 8.99999 18C9.15385 18 9.29735 17.9227 9.38204 17.7943L10.222 16.5211C10.2706 16.4475 11.4243 14.6956 12.6009 12.5872C14.3119 9.52116 15.1089 7.46258 15.1089 6.10884C15.1089 2.74041 12.3684 0 8.99999 0ZM11.8015 12.1411C10.6414 14.22 9.50584 15.9445 9.45799 16.0169L8.99999 16.7111L8.54213 16.0171C8.49402 15.9441 7.34979 14.2042 6.19842 12.1411C4.61128 9.29692 3.80653 7.26734 3.80653 6.10884C3.80653 3.24517 6.13629 0.915412 8.99999 0.915412C11.8637 0.915412 14.1934 3.24517 14.1934 6.10884C14.1934 7.26749 13.3887 9.297 11.8015 12.1411Z" fill="#800080"/>
<path d="M8.99982 2.68362C7.13219 2.68362 5.61279 4.20306 5.61279 6.07065C5.61279 7.93824 7.13219 9.45767 8.99982 9.45767C10.8674 9.45767 12.3868 7.93824 12.3868 6.07065C12.3868 4.20306 10.8674 2.68362 8.99982 2.68362ZM8.99982 8.54226C7.63695 8.54226 6.5282 7.43351 6.5282 6.07065C6.5282 4.70778 7.63695 3.59904 8.99982 3.59904C10.3627 3.59904 11.4714 4.70778 11.4714 6.07065C11.4714 7.43351 10.3627 8.54226 8.99982 8.54226Z" fill="#800080"/>
</svg>
