<svg width="110" height="20" viewBox="0 0 110 20" fill="none" xmlns="http://www.w3.org/2000/svg">
<path d="M10 0L12.2451 6.90983H19.5106L13.6327 11.1803L15.8779 18.0902L10 13.8197L4.12215 18.0902L6.36729 11.1803L0.489435 6.90983H7.75486L10 0Z" fill="#FFB800"/>
<path d="M32.5 0L34.7451 6.90983H42.0106L36.1327 11.1803L38.3779 18.0902L32.5 13.8197L26.6221 18.0902L28.8673 11.1803L22.9894 6.90983H30.2549L32.5 0Z" fill="#FFB800"/>
<path d="M55 0L57.2451 6.90983H64.5106L58.6327 11.1803L60.8779 18.0902L55 13.8197L49.1221 18.0902L51.3673 11.1803L45.4894 6.90983H52.7549L55 0Z" fill="#FFB800"/>
<path d="M77.5 0L79.7451 6.90983H87.0106L81.1327 11.1803L83.3779 18.0902L77.5 13.8197L71.6221 18.0902L73.8673 11.1803L67.9894 6.90983H75.2549L77.5 0Z" fill="#FFB800"/>
<path d="M100 0L102.245 6.90983H109.511L103.633 11.1803L105.878 18.0902L100 13.8197L94.1221 18.0902L96.3673 11.1803L90.4894 6.90983H97.7549L100 0Z" fill="#FFB800"/>
</svg>
