<svg width="328" height="68" viewBox="0 0 328 68" fill="none" xmlns="http://www.w3.org/2000/svg">
<path opacity="0.1" d="M328 4.24508V0H90.75C90.75 1.48951 88.2509 2.70757 85.0928 2.80397C85.0455 2.79711 84.9964 2.79228 84.9447 2.79228C84.8783 2.79228 84.8137 2.79832 84.756 2.80921C84.6983 2.81002 84.6414 2.81083 84.5837 2.81083C81.237 2.81083 78.5243 1.55243 78.5243 0H0V4.24508C2.30267 4.57864 3.97562 5.57568 3.97562 6.75382C3.97562 7.93195 2.30267 8.9298 0 9.26255V12.0302C2.30267 12.363 3.97562 13.3604 3.97562 14.539C3.97562 15.7175 2.30267 16.7141 0 17.0477V19.8146C2.30267 20.1481 3.97562 21.1448 3.97562 22.3233C3.97562 23.5018 2.30267 24.4985 0 24.832V27.5989C2.30267 27.9324 3.97562 28.9291 3.97562 30.1076C3.97562 31.2862 2.30267 32.2828 0 32.6164V35.3832C2.30267 35.7168 3.97562 36.7134 3.97562 37.892C3.97562 39.0705 2.30267 40.0679 0 40.4007V43.1676C2.30267 43.5011 3.97562 44.4986 3.97562 45.6767C3.97562 46.8548 2.30267 47.8519 0 48.1854V50.9523C2.30267 51.2851 3.97562 52.2825 3.97562 53.461C3.97562 54.6396 2.30267 55.6362 0 55.9698V58.737C2.30267 59.0706 3.97562 60.0672 3.97562 61.2458C3.97562 62.4243 2.30267 63.421 0 63.7545V67.9996H78.5243C78.5243 66.4472 81.237 65.1888 84.5837 65.1888C84.6733 65.1888 84.762 65.1896 84.8508 65.1916V64.9226C84.8852 64.8911 84.9068 64.8564 84.9076 64.8189L84.9223 63.1152C84.9223 63.0721 84.8956 63.0317 84.8508 62.9971V60.9441C84.9076 60.907 84.9412 60.8618 84.9421 60.8126L84.9567 59.1089C84.9567 59.0553 84.9162 59.0069 84.8508 58.9678V56.9575C84.9007 56.9313 84.9378 56.9003 84.9576 56.8656V65.192C88.1803 65.2569 90.75 66.4891 90.75 68H328V63.7549C325.696 63.4214 324.024 62.4247 324.024 61.2462C324.024 60.0676 325.696 59.071 328 58.7374V55.9706C325.696 55.637 324.024 54.6404 324.024 53.4618C324.024 52.2833 325.696 51.2859 328 50.9531V48.1858C325.696 47.8523 324.024 46.8548 324.024 45.6767C324.024 44.4986 325.696 43.5015 328 43.168V40.4011C325.696 40.0683 324.024 39.0709 324.024 37.8924C324.024 36.7138 325.696 35.7172 328 35.3836V32.6164C325.696 32.2828 324.024 31.2862 324.024 30.1076C324.024 28.9291 325.696 27.9324 328 27.5989V24.832C325.696 24.4985 324.024 23.5018 324.024 22.3233C324.024 21.1448 325.696 20.1473 328 19.8146V17.0473C325.696 16.7137 324.024 15.7171 324.024 14.5386C324.024 13.36 325.696 12.3626 328 12.0298V9.26214C325.696 8.92899 324.024 7.93195 324.024 6.75341C324.024 5.57487 325.696 4.57864 328 4.24508ZM84.8516 36.9861C84.8904 36.9784 84.9257 36.9675 84.9585 36.9554V38.9047C84.9266 38.8918 84.8904 38.8805 84.8516 38.8717V36.9861ZM84.8516 34.8581V32.9854C84.8895 32.9794 84.9257 32.9717 84.9585 32.9616V34.8855C84.9257 34.8746 84.8904 34.8654 84.8516 34.8581ZM84.8516 30.8469V28.9843C84.8895 28.9795 84.9249 28.9726 84.9585 28.9642V30.8691C84.9249 30.8598 84.8895 30.8526 84.8516 30.8469ZM84.8516 26.8358V24.9829C84.8887 24.9796 84.9249 24.974 84.9585 24.9671V26.8543C84.9249 26.8463 84.8895 26.8402 84.8516 26.8358ZM84.8516 22.8267V20.9782C84.8887 20.9762 84.924 20.9725 84.9585 20.9665V22.84C84.9249 22.8335 84.8887 22.8295 84.8516 22.8267ZM84.8516 18.8187V16.9735C84.8887 16.9727 84.924 16.9699 84.9585 16.9654V18.8288C84.924 18.8236 84.8887 18.8203 84.8516 18.8187ZM84.8516 14.8108V12.968C84.8516 12.968 84.856 12.968 84.8577 12.968C84.8913 12.968 84.9257 12.9664 84.9576 12.9635V14.8173C84.9231 14.8132 84.8887 14.8112 84.8516 14.8108ZM84.8766 10.8041C84.8689 10.8041 84.8594 10.8049 84.8516 10.8053V8.96045C84.8654 8.96086 84.8784 8.96247 84.893 8.96247C84.9145 8.96247 84.9378 8.96085 84.9585 8.95964V10.8085C84.9317 10.8065 84.9051 10.8041 84.8766 10.8041ZM84.8516 48.9756C84.8921 48.961 84.9292 48.9441 84.9585 48.9243V50.9817C84.93 50.9592 84.8947 50.939 84.8516 50.9221V48.9756ZM84.8516 46.9028V44.9814C84.8921 44.9693 84.9274 44.9543 84.9585 44.9378V46.952C84.9283 46.9335 84.893 46.9165 84.8516 46.9028ZM84.8516 42.8869V40.9839C84.8904 40.9742 84.9266 40.9629 84.9585 40.9488V42.926C84.9274 42.9106 84.8913 42.8977 84.8516 42.8869ZM84.9292 4.95616C84.9395 4.95616 84.949 4.95495 84.9585 4.95495V6.8006C84.9429 6.7998 84.9275 6.79818 84.9111 6.79818C84.8904 6.79818 84.8715 6.7998 84.8516 6.8006V4.95253C84.8766 4.95414 84.9033 4.95616 84.9292 4.95616ZM84.8516 54.9429V52.969C84.8956 52.95 84.9317 52.9274 84.9585 52.9024V55.0215C84.9343 54.9921 84.8982 54.9651 84.8516 54.9429Z" fill="#414042"/>
<path d="M88 2.80661V65.1918C87.9085 65.1898 87.8153 65.189 87.723 65.189C84.2519 65.189 81.4388 66.4477 81.4388 68H0V63.7549C2.38863 63.4215 4.12371 62.4246 4.12371 61.2462C4.12371 60.0679 2.38863 59.0709 0 58.7376V55.9703C2.38863 55.637 4.12371 54.64 4.12371 53.4617C4.12371 52.2834 2.38863 51.286 0 50.9531V48.1858C2.38863 47.8525 4.12371 46.8551 4.12371 45.6772C4.12371 44.4992 2.38863 43.5015 0 43.1681V40.4009C2.38863 40.0679 4.12371 39.0706 4.12371 37.8923C4.12371 36.7139 2.38863 35.717 0 35.3836V32.6164C2.38863 32.283 4.12371 31.2861 4.12371 30.1077C4.12371 28.9294 2.38863 27.9325 0 27.5991V24.8319C2.38863 24.4985 4.12371 23.5016 4.12371 22.3232C4.12371 21.1449 2.38863 20.1479 0 19.8146V17.0473C2.38863 16.714 4.12371 15.717 4.12371 14.5387C4.12371 13.3604 2.38863 12.363 0 12.03V9.26242C2.38863 8.92944 4.12371 7.93211 4.12371 6.75377C4.12371 5.57543 2.38863 4.5785 0 4.24512V0H81.4388C81.4388 1.55229 84.2528 2.81099 87.723 2.81099C87.8153 2.81099 87.9085 2.81019 88 2.8082V2.80661Z" fill="#800080"/>
<path d="M324.013 6.75521C324.013 7.93352 325.689 8.93083 328 9.2638V12.0314C325.689 12.3643 324.013 13.3616 324.013 14.5399C324.013 15.7183 325.689 16.7152 328 17.0485V19.8157C325.689 20.1487 324.013 21.146 324.013 22.3243C324.013 23.5026 325.689 24.4995 328 24.8329V27.6C325.689 27.9334 324.013 28.9303 324.013 30.1086C324.013 31.2869 325.689 32.2838 328 32.6172V35.3844C325.689 35.7177 324.013 36.7146 324.013 37.893C324.013 39.0713 325.689 40.0686 328 40.4016V43.1687C325.689 43.5021 324.013 44.499 324.013 45.6773C324.013 46.8556 325.689 47.8529 328 48.1863V50.9535C325.689 51.2864 324.013 52.2837 324.013 53.462C324.013 54.6404 325.689 55.6373 328 55.9706V58.7378C325.689 59.0712 324.013 60.0681 324.013 61.2464C324.013 62.4247 325.689 63.4216 328 63.755V68H90.0772C90.0772 66.4891 87.4997 65.2571 84.2686 65.1919V2.80814C87.4997 2.7433 90.0772 1.51088 90.0772 0H328V4.24503C325.689 4.57839 324.013 5.5753 324.013 6.75361V6.75521Z" fill="#800080"/>
</svg>
