<svg width="15" height="18" viewBox="0 0 15 18" fill="none" xmlns="http://www.w3.org/2000/svg">
<path d="M13.875 6.75H12.75V5.24999C12.75 2.35512 10.3949 0 7.5 0C4.60509 0 2.25001 2.35512 2.25001 5.24999V6.75H1.12501C0.91773 6.75 0.75 6.91773 0.75 7.12501V16.5C0.75 17.3273 1.42271 18 2.25001 18H12.75C13.5773 18 14.25 17.3273 14.25 16.5V7.12501C14.25 6.91773 14.0823 6.75 13.875 6.75ZM8.62282 14.5836C8.63453 14.6894 8.6005 14.7956 8.52945 14.8751C8.4584 14.9546 8.35658 15 8.25002 15H6.75001C6.64345 15 6.54164 14.9546 6.47059 14.8751C6.39954 14.7957 6.36547 14.6895 6.37721 14.5836L6.61378 12.4563C6.22963 12.1769 6.00002 11.7349 6.00002 11.25C6.00002 10.4227 6.67274 9.74999 7.50004 9.74999C8.32733 9.74999 9.00005 10.4227 9.00005 11.25C9.00005 11.7349 8.77044 12.1769 8.38629 12.4563L8.62282 14.5836ZM10.5 6.75H4.50001V5.24999C4.50001 3.59582 5.84583 2.25 7.5 2.25C9.15417 2.25 10.5 3.59582 10.5 5.24999V6.75Z" fill="white"/>
</svg>
