<svg xmlns="http://www.w3.org/2000/svg" width="22" height="22" fill="none" viewBox="0 0 22 22"><g clip-path="url(#clip0_10_209)"><path fill="purple" d="M20.6338 17.8277L18.169 16.4127C18.1275 16.389 18.0816 16.3742 18.0341 16.3692C17.9866 16.3643 17.9386 16.3693 17.8932 16.384C17.8478 16.3987 17.8059 16.4227 17.7703 16.4546C17.7348 16.4864 17.7062 16.5253 17.6866 16.5688C16.6391 18.8933 16.6859 18.6645 16.6859 19.1157C16.6863 19.4264 16.7526 19.7334 16.8806 20.0165C17.0086 20.2995 17.1952 20.5522 17.4281 20.7578C17.7253 21.0207 18.088 21.1985 18.4779 21.2726C18.8677 21.3467 19.2703 21.3142 19.6433 21.1787C20.0163 21.0432 20.3458 20.8096 20.5972 20.5025C20.8485 20.1954 21.0124 19.8262 21.0715 19.4338C21.1809 18.6618 20.8438 17.9481 20.6338 17.8277Z"/><path fill="purple" d="M6.18756 5.5H1.37506C0.805517 5.5 0.343811 5.96171 0.343811 6.53125V10.3125C0.343811 10.882 0.805517 11.3438 1.37506 11.3438H6.18756C6.7571 11.3438 7.21881 10.882 7.21881 10.3125V6.53125C7.21881 5.96171 6.7571 5.5 6.18756 5.5Z"/><path fill="purple" d="M11.3438 4.125C12.2931 4.125 13.0626 3.35549 13.0626 2.40625C13.0626 1.45701 12.2931 0.6875 11.3438 0.6875C10.3946 0.6875 9.62506 1.45701 9.62506 2.40625C9.62506 3.35549 10.3946 4.125 11.3438 4.125Z"/><path fill="purple" d="M9.27023 17.8409H5.54655C5.50162 17.8409 5.45712 17.8498 5.4156 17.8669C5.37408 17.8841 5.33636 17.9093 5.30458 17.9411C5.2728 17.9729 5.24758 18.0106 5.23038 18.0521C5.21318 18.0936 5.20432 18.1381 5.20432 18.183V19.0023C5.20673 19.5853 5.44001 20.1435 5.85309 20.5549C6.26618 20.9663 6.82541 21.1972 7.40839 21.1972C7.99138 21.1972 8.55061 20.9663 8.96369 20.5549C9.37678 20.1435 9.61006 19.5853 9.61247 19.0023V18.183C9.61247 18.1381 9.60361 18.0936 9.5864 18.0521C9.5692 18.0106 9.54399 17.9729 9.51221 17.9411C9.48043 17.9093 9.4427 17.8841 9.40118 17.8669C9.35966 17.8498 9.31517 17.8409 9.27023 17.8409Z"/><path fill="purple" d="M19.9166 15.961C18.8973 15.3754 17.7551 15.5933 17.5849 15.8113L15.7945 18.1051C15.5813 18.3774 15.8261 19.2273 15.9989 19.5894C16.0247 19.6434 16.0643 19.6897 16.1136 19.7236C16.163 19.7576 16.2204 19.778 16.28 19.7828C16.3397 19.7877 16.3997 19.7768 16.4538 19.7512C16.508 19.7257 16.5545 19.6864 16.5887 19.6372C17.4469 18.4025 19.476 17.8655 20.822 18.5051C20.8765 18.5309 20.9369 18.5419 20.9971 18.5368C21.0572 18.5318 21.115 18.5109 21.1645 18.4764C21.214 18.4419 21.2534 18.3949 21.2789 18.3402C21.3044 18.2854 21.315 18.225 21.3096 18.1649C21.2752 17.7116 21.1303 17.2737 20.8874 16.8895C20.6446 16.5053 20.3112 16.1865 19.9166 15.961Z"/><path fill="purple" d="M14.508 7.55527C12.6909 7.03868 12.0174 6.47072 11.4999 5.89158C11.5356 5.62805 11.4879 5.35996 11.3635 5.1249C11.2391 4.88985 11.0443 4.69961 10.8063 4.58086C10.6365 4.49977 10.4505 4.45806 10.2622 4.45884C10.074 4.45962 9.88836 4.50286 9.71916 4.58535C9.54995 4.66784 9.40155 4.78745 9.28499 4.93526C9.16843 5.08308 9.08673 5.25528 9.04597 5.43906L8.05971 10.1517C8.03064 10.2917 8.03118 10.4362 8.06127 10.5759C8.09137 10.7157 8.15037 10.8476 8.23447 10.9632C8.31858 11.0789 8.42594 11.1756 8.54965 11.2472C8.67336 11.3189 8.81069 11.3639 8.95282 11.3793L10.6427 11.5663C10.7298 11.5755 10.81 11.6179 10.8668 11.6846C10.9236 11.7512 10.9526 11.8372 10.9478 11.9247L10.643 17.0802C10.6403 17.1268 10.6471 17.1734 10.663 17.2172C10.679 17.2611 10.7037 17.3012 10.7357 17.3351C10.7677 17.369 10.8062 17.3961 10.849 17.4146C10.8918 17.433 10.938 17.4426 10.9846 17.4426H12.3566C12.4411 17.4426 12.5227 17.4113 12.5855 17.3547C12.6483 17.2982 12.688 17.2204 12.6968 17.1363L13.3272 11.1761C13.3508 10.95 13.2986 10.7225 13.1788 10.5293C13.059 10.3362 12.8783 10.1883 12.6652 10.1091L10.9809 9.48048C10.9035 9.45174 10.8391 9.39588 10.7998 9.32327C10.7605 9.25066 10.7489 9.16624 10.7671 9.0857L11.0234 7.9806C11.9901 8.75336 13.1778 9.19821 14.4144 9.2507C14.5051 9.25069 14.5922 9.21463 14.6564 9.15045C14.7206 9.08627 14.7566 8.99922 14.7566 8.90846V7.88443C14.7566 7.81 14.7323 7.7376 14.6875 7.6782C14.6426 7.61881 14.5796 7.57565 14.508 7.55527Z"/><path fill="purple" d="M9.95572 11.9796H4.46797C4.37701 11.98 4.28993 12.0164 4.22579 12.0809C4.16164 12.1454 4.12567 12.2327 4.12573 12.3236C4.12634 12.8664 4.34221 13.3867 4.72597 13.7705C5.10974 14.1542 5.63006 14.3701 6.17278 14.3707H9.95572C10.0465 14.3707 10.1335 14.3346 10.1977 14.2705C10.2619 14.2063 10.298 14.1192 10.298 14.0285V12.3218C10.298 12.231 10.2619 12.144 10.1977 12.0798C10.1335 12.0156 10.0465 11.9796 9.95572 11.9796Z"/><path fill="#D799D7" d="M17.5305 13.3195C16.7923 12.8298 16.2404 11.5846 16.157 10.2747H16.8153C17.0874 10.2748 17.3486 10.167 17.5413 9.97481C17.7341 9.78264 17.8428 9.52186 17.8435 9.24968V8.56705C17.8427 8.29488 17.7341 8.03413 17.5413 7.84199C17.3485 7.64986 17.0874 7.54203 16.8153 7.54218H14.4144C14.3236 7.54218 14.2366 7.57824 14.1724 7.64242C14.1082 7.7066 14.0722 7.79365 14.0721 7.88441V16.7581H11.1922C11.1375 16.7588 11.0838 16.7429 11.0382 16.7127C10.3788 16.267 9.71032 15.4632 10.2699 14.1637C10.2924 14.1117 10.3015 14.0549 10.2965 13.9984C10.2916 13.942 10.2727 13.8876 10.2415 13.8403C10.2104 13.7929 10.168 13.7541 10.1181 13.7272C10.0682 13.7003 10.0124 13.6862 9.95571 13.6862H5.58918C5.534 13.6862 5.47964 13.6996 5.43074 13.7252C5.38185 13.7508 5.33986 13.7878 5.30837 13.8331C5.10728 14.1221 3.35783 16.7001 3.83753 18.1966C3.91962 18.4599 4.07977 18.692 4.29676 18.8621C4.51375 19.0323 4.77734 19.1325 5.05257 19.1495L15.4963 19.1493C15.8402 19.1493 18.4629 16.7939 18.4425 14.9778C18.4361 14.6482 18.3497 14.3251 18.1908 14.0362C18.032 13.7474 17.8053 13.5014 17.5305 13.3195Z"/></g><defs><clipPath id="clip0_10_209"><rect width="22" height="22" fill="#fff"/></clipPath></defs></svg>