<svg width="253" height="68" viewBox="0 0 253 68" fill="none" xmlns="http://www.w3.org/2000/svg">
<path opacity="0.1" d="M253 4.24508V0H69.9993C69.9993 1.48951 68.0716 2.70757 65.6356 2.80397C65.5991 2.79711 65.5612 2.79228 65.5214 2.79228C65.4702 2.79228 65.4203 2.79832 65.3758 2.80921C65.3313 2.81002 65.2875 2.81083 65.2429 2.81083C62.6614 2.81083 60.569 1.55243 60.569 0H0V4.24508C1.77615 4.57864 3.06656 5.57568 3.06656 6.75382C3.06656 7.93195 1.77615 8.9298 0 9.26255V12.0302C1.77615 12.363 3.06656 13.3604 3.06656 14.539C3.06656 15.7175 1.77615 16.7141 0 17.0477V19.8146C1.77615 20.1481 3.06656 21.1448 3.06656 22.3233C3.06656 23.5018 1.77615 24.4985 0 24.832V27.5989C1.77615 27.9324 3.06656 28.9291 3.06656 30.1076C3.06656 31.2862 1.77615 32.2828 0 32.6164V35.3832C1.77615 35.7168 3.06656 36.7134 3.06656 37.892C3.06656 39.0705 1.77615 40.0679 0 40.4007V43.1676C1.77615 43.5011 3.06656 44.4986 3.06656 45.6767C3.06656 46.8548 1.77615 47.8519 0 48.1854V50.9523C1.77615 51.2851 3.06656 52.2825 3.06656 53.461C3.06656 54.6396 1.77615 55.6362 0 55.9698V58.737C1.77615 59.0706 3.06656 60.0672 3.06656 61.2458C3.06656 62.4243 1.77615 63.421 0 63.7545V67.9996H60.569C60.569 66.4472 62.6614 65.1888 65.2429 65.1888C65.312 65.1888 65.3805 65.1896 65.4489 65.1916V64.9226C65.4755 64.8911 65.4921 64.8564 65.4928 64.8189L65.5041 63.1152C65.5041 63.0721 65.4835 63.0317 65.4489 62.9971V60.9441C65.4928 60.907 65.5187 60.8618 65.5194 60.8126L65.5307 59.1089C65.5307 59.0553 65.4994 59.0069 65.4489 58.9678V56.9575C65.4875 56.9313 65.516 56.9003 65.5313 56.8656V65.192C68.0171 65.2569 69.9993 66.4891 69.9993 68H253V63.7549C251.223 63.4214 249.933 62.4247 249.933 61.2462C249.933 60.0676 251.223 59.071 253 58.7374V55.9706C251.223 55.637 249.933 54.6404 249.933 53.4618C249.933 52.2833 251.223 51.2859 253 50.9531V48.1858C251.223 47.8523 249.933 46.8548 249.933 45.6767C249.933 44.4986 251.223 43.5015 253 43.168V40.4011C251.223 40.0684 249.933 39.0709 249.933 37.8924C249.933 36.7138 251.223 35.7172 253 35.3836V32.6164C251.223 32.2828 249.933 31.2862 249.933 30.1076C249.933 28.9291 251.223 27.9324 253 27.5989V24.832C251.223 24.4985 249.933 23.5018 249.933 22.3233C249.933 21.1448 251.223 20.1473 253 19.8146V17.0473C251.223 16.7137 249.933 15.7171 249.933 14.5386C249.933 13.36 251.223 12.3626 253 12.0298V9.26214C251.223 8.92899 249.933 7.93195 249.933 6.75341C249.933 5.57487 251.223 4.57864 253 4.24508ZM65.4496 36.9861C65.4795 36.9784 65.5067 36.9675 65.532 36.9554V38.9047C65.5074 38.8918 65.4795 38.8805 65.4496 38.8717V36.9861ZM65.4496 34.8581V32.9854C65.4788 32.9794 65.5067 32.9717 65.532 32.9616V34.8855C65.5067 34.8746 65.4795 34.8653 65.4496 34.8581ZM65.4496 30.8469V28.9843C65.4788 28.9795 65.5061 28.9727 65.532 28.9642V30.8691C65.5061 30.8598 65.4788 30.8526 65.4496 30.8469ZM65.4496 26.8358V24.9829C65.4782 24.9796 65.5061 24.974 65.532 24.9671V26.8543C65.5061 26.8463 65.4788 26.8402 65.4496 26.8358ZM65.4496 22.8267V20.9782C65.4782 20.9762 65.5054 20.9725 65.532 20.9665V22.84C65.5061 22.8335 65.4782 22.8295 65.4496 22.8267ZM65.4496 18.8187V16.9735C65.4782 16.9727 65.5054 16.9699 65.532 16.9654V18.8288C65.5054 18.8236 65.4782 18.8203 65.4496 18.8187ZM65.4496 14.8108V12.968C65.4496 12.968 65.4529 12.968 65.4542 12.968C65.4802 12.968 65.5067 12.9664 65.5313 12.9635V14.8173C65.5047 14.8132 65.4782 14.8112 65.4496 14.8108ZM65.4689 10.8041C65.4629 10.8041 65.4556 10.8049 65.4496 10.8053V8.96045C65.4602 8.96086 65.4702 8.96247 65.4815 8.96247C65.4981 8.96247 65.516 8.96085 65.532 8.95965V10.8085C65.5114 10.8065 65.4908 10.8041 65.4689 10.8041ZM65.4496 48.9756C65.4808 48.961 65.5094 48.9441 65.532 48.9243V50.9818C65.51 50.9592 65.4828 50.939 65.4496 50.9221V48.9756ZM65.4496 46.9028V44.9814C65.4808 44.9693 65.5081 44.9543 65.532 44.9378V46.952C65.5087 46.9335 65.4815 46.9165 65.4496 46.9028ZM65.4496 42.8869V40.9839C65.4795 40.9742 65.5074 40.9629 65.532 40.9488V42.926C65.5081 42.9106 65.4802 42.8977 65.4496 42.8869ZM65.5094 4.95616C65.5174 4.95616 65.5247 4.95495 65.532 4.95495V6.8006C65.52 6.7998 65.5081 6.79818 65.4954 6.79818C65.4795 6.79818 65.4649 6.7998 65.4496 6.8006V4.95253C65.4689 4.95414 65.4895 4.95616 65.5094 4.95616ZM65.4496 54.9429V52.969C65.4835 52.95 65.5114 52.9274 65.532 52.9024V55.0215C65.5134 54.9921 65.4855 54.9651 65.4496 54.9429Z" fill="#414042"/>
<path d="M65 2.80661V65.1918C64.9324 65.1898 64.8636 65.189 64.7954 65.189C62.2315 65.189 60.1537 66.4477 60.1537 68H0V63.7549C1.76433 63.4215 3.04592 62.4246 3.04592 61.2462C3.04592 60.0679 1.76433 59.0709 0 58.7376V55.9703C1.76433 55.637 3.04592 54.64 3.04592 53.4617C3.04592 52.2834 1.76433 51.286 0 50.9531V48.1858C1.76433 47.8525 3.04592 46.8551 3.04592 45.6772C3.04592 44.4992 1.76433 43.5015 0 43.1681V40.4009C1.76433 40.0679 3.04592 39.0706 3.04592 37.8923C3.04592 36.7139 1.76433 35.717 0 35.3836V32.6164C1.76433 32.283 3.04592 31.2861 3.04592 30.1077C3.04592 28.9294 1.76433 27.9325 0 27.5991V24.8319C1.76433 24.4985 3.04592 23.5016 3.04592 22.3232C3.04592 21.1449 1.76433 20.1479 0 19.8146V17.0473C1.76433 16.714 3.04592 15.717 3.04592 14.5387C3.04592 13.3604 1.76433 12.363 0 12.03V9.26242C1.76433 8.92944 3.04592 7.93211 3.04592 6.75377C3.04592 5.57543 1.76433 4.5785 0 4.24512V0H60.1537C60.1537 1.55229 62.2322 2.81099 64.7954 2.81099C64.8636 2.81099 64.9324 2.81019 65 2.8082V2.80661Z" fill="#800080"/>
<path d="M249.925 6.75521C249.925 7.93352 251.217 8.93083 253 9.2638V12.0314C251.217 12.3643 249.925 13.3616 249.925 14.5399C249.925 15.7183 251.217 16.7152 253 17.0485V19.8157C251.217 20.1487 249.925 21.146 249.925 22.3243C249.925 23.5026 251.217 24.4995 253 24.8329V27.6C251.217 27.9334 249.925 28.9303 249.925 30.1086C249.925 31.2869 251.217 32.2838 253 32.6172V35.3844C251.217 35.7177 249.925 36.7146 249.925 37.893C249.925 39.0713 251.217 40.0686 253 40.4016V43.1687C251.217 43.5021 249.925 44.499 249.925 45.6773C249.925 46.8556 251.217 47.8529 253 48.1863V50.9535C251.217 51.2864 249.925 52.2837 249.925 53.462C249.925 54.6404 251.217 55.6373 253 55.9706V58.7378C251.217 59.0712 249.925 60.0681 249.925 61.2464C249.925 62.4247 251.217 63.4216 253 63.755V68H69.4804C69.4804 66.4891 67.4923 65.2571 65 65.1919V2.80814C67.4923 2.7433 69.4804 1.51088 69.4804 0H253V4.24503C251.217 4.57839 249.925 5.5753 249.925 6.75361V6.75521Z" fill="#800080"/>
<path d="M104.188 35.3828H105.688C105.609 36.1016 105.404 36.7448 105.07 37.3125C104.737 37.8802 104.266 38.3307 103.656 38.6641C103.047 38.9922 102.286 39.1562 101.375 39.1562C100.708 39.1562 100.102 39.0312 99.5547 38.7812C99.013 38.5312 98.5469 38.1771 98.1562 37.7188C97.7656 37.2552 97.4635 36.7005 97.25 36.0547C97.0417 35.4036 96.9375 34.6797 96.9375 33.8828V32.75C96.9375 31.9531 97.0417 31.2318 97.25 30.5859C97.4635 29.9349 97.7682 29.3776 98.1641 28.9141C98.5651 28.4505 99.0469 28.0938 99.6094 27.8438C100.172 27.5938 100.805 27.4688 101.508 27.4688C102.367 27.4688 103.094 27.6302 103.688 27.9531C104.281 28.276 104.742 28.724 105.07 29.2969C105.404 29.8646 105.609 30.5234 105.688 31.2734H104.188C104.115 30.7422 103.979 30.2865 103.781 29.9062C103.583 29.5208 103.302 29.224 102.938 29.0156C102.573 28.8073 102.096 28.7031 101.508 28.7031C101.003 28.7031 100.557 28.7995 100.172 28.9922C99.7917 29.1849 99.4714 29.4583 99.2109 29.8125C98.9557 30.1667 98.763 30.5911 98.6328 31.0859C98.5026 31.5807 98.4375 32.1302 98.4375 32.7344V33.8828C98.4375 34.4401 98.4948 34.9635 98.6094 35.4531C98.7292 35.9427 98.9089 36.3724 99.1484 36.7422C99.388 37.112 99.6927 37.4036 100.062 37.6172C100.432 37.8255 100.87 37.9297 101.375 37.9297C102.016 37.9297 102.526 37.8281 102.906 37.625C103.286 37.4219 103.573 37.1302 103.766 36.75C103.964 36.3698 104.104 35.9141 104.188 35.3828ZM107.141 34.8672V34.6875C107.141 34.0781 107.229 33.513 107.406 32.9922C107.583 32.4661 107.839 32.0104 108.172 31.625C108.505 31.2344 108.909 30.9323 109.383 30.7188C109.857 30.5 110.388 30.3906 110.977 30.3906C111.57 30.3906 112.104 30.5 112.578 30.7188C113.057 30.9323 113.464 31.2344 113.797 31.625C114.135 32.0104 114.393 32.4661 114.57 32.9922C114.747 33.513 114.836 34.0781 114.836 34.6875V34.8672C114.836 35.4766 114.747 36.0417 114.57 36.5625C114.393 37.0833 114.135 37.5391 113.797 37.9297C113.464 38.3151 113.06 38.6172 112.586 38.8359C112.117 39.0495 111.586 39.1562 110.992 39.1562C110.398 39.1562 109.865 39.0495 109.391 38.8359C108.917 38.6172 108.51 38.3151 108.172 37.9297C107.839 37.5391 107.583 37.0833 107.406 36.5625C107.229 36.0417 107.141 35.4766 107.141 34.8672ZM108.586 34.6875V34.8672C108.586 35.2891 108.635 35.6875 108.734 36.0625C108.833 36.4323 108.982 36.7604 109.18 37.0469C109.383 37.3333 109.635 37.5599 109.938 37.7266C110.24 37.888 110.591 37.9688 110.992 37.9688C111.388 37.9688 111.734 37.888 112.031 37.7266C112.333 37.5599 112.583 37.3333 112.781 37.0469C112.979 36.7604 113.128 36.4323 113.227 36.0625C113.331 35.6875 113.383 35.2891 113.383 34.8672V34.6875C113.383 34.2708 113.331 33.8776 113.227 33.5078C113.128 33.1328 112.977 32.8021 112.773 32.5156C112.576 32.224 112.326 31.9948 112.023 31.8281C111.727 31.6615 111.378 31.5781 110.977 31.5781C110.581 31.5781 110.232 31.6615 109.93 31.8281C109.633 31.9948 109.383 32.224 109.18 32.5156C108.982 32.8021 108.833 33.1328 108.734 33.5078C108.635 33.8776 108.586 34.2708 108.586 34.6875ZM118.086 32.2266V39H116.633V30.5469H118.008L118.086 32.2266ZM117.789 34.4531L117.117 34.4297C117.122 33.8516 117.198 33.3177 117.344 32.8281C117.49 32.3333 117.706 31.9036 117.992 31.5391C118.279 31.1745 118.635 30.8932 119.062 30.6953C119.49 30.4922 119.984 30.3906 120.547 30.3906C120.943 30.3906 121.307 30.4479 121.641 30.5625C121.974 30.6719 122.263 30.8464 122.508 31.0859C122.753 31.3255 122.943 31.6328 123.078 32.0078C123.214 32.3828 123.281 32.8359 123.281 33.3672V39H121.836V33.4375C121.836 32.9948 121.76 32.6406 121.609 32.375C121.464 32.1094 121.255 31.9167 120.984 31.7969C120.714 31.6719 120.396 31.6094 120.031 31.6094C119.604 31.6094 119.247 31.6849 118.961 31.8359C118.674 31.987 118.445 32.1953 118.273 32.4609C118.102 32.7266 117.977 33.0312 117.898 33.375C117.826 33.7135 117.789 34.0729 117.789 34.4531ZM123.266 33.6562L122.297 33.9531C122.302 33.4896 122.378 33.0443 122.523 32.6172C122.674 32.1901 122.891 31.8099 123.172 31.4766C123.458 31.1432 123.81 30.8802 124.227 30.6875C124.643 30.4896 125.12 30.3906 125.656 30.3906C126.109 30.3906 126.51 30.4505 126.859 30.5703C127.214 30.6901 127.51 30.875 127.75 31.125C127.995 31.3698 128.18 31.6849 128.305 32.0703C128.43 32.4557 128.492 32.9141 128.492 33.4453V39H127.039V33.4297C127.039 32.9557 126.964 32.5885 126.812 32.3281C126.667 32.0625 126.458 31.8776 126.188 31.7734C125.922 31.6641 125.604 31.6094 125.234 31.6094C124.917 31.6094 124.635 31.6641 124.391 31.7734C124.146 31.8828 123.94 32.0339 123.773 32.2266C123.607 32.4141 123.479 32.6302 123.391 32.875C123.307 33.1198 123.266 33.3802 123.266 33.6562ZM132.125 32.1719V42.25H130.672V30.5469H132L132.125 32.1719ZM137.82 34.7031V34.8672C137.82 35.4818 137.747 36.0521 137.602 36.5781C137.456 37.099 137.242 37.5521 136.961 37.9375C136.685 38.3229 136.344 38.6224 135.938 38.8359C135.531 39.0495 135.065 39.1562 134.539 39.1562C134.003 39.1562 133.529 39.0677 133.117 38.8906C132.706 38.7135 132.357 38.4557 132.07 38.1172C131.784 37.7786 131.555 37.3724 131.383 36.8984C131.216 36.4245 131.102 35.8906 131.039 35.2969V34.4219C131.102 33.7969 131.219 33.237 131.391 32.7422C131.562 32.2474 131.789 31.8255 132.07 31.4766C132.357 31.1224 132.703 30.8542 133.109 30.6719C133.516 30.4844 133.984 30.3906 134.516 30.3906C135.047 30.3906 135.518 30.4948 135.93 30.7031C136.341 30.9062 136.688 31.1979 136.969 31.5781C137.25 31.9583 137.461 32.4141 137.602 32.9453C137.747 33.4714 137.82 34.0573 137.82 34.7031ZM136.367 34.8672V34.7031C136.367 34.2812 136.323 33.8854 136.234 33.5156C136.146 33.1406 136.008 32.8125 135.82 32.5312C135.638 32.2448 135.404 32.0208 135.117 31.8594C134.831 31.6927 134.49 31.6094 134.094 31.6094C133.729 31.6094 133.411 31.6719 133.141 31.7969C132.875 31.9219 132.648 32.0911 132.461 32.3047C132.273 32.513 132.12 32.7526 132 33.0234C131.885 33.2891 131.799 33.5651 131.742 33.8516V35.875C131.846 36.2396 131.992 36.5833 132.18 36.9062C132.367 37.224 132.617 37.4818 132.93 37.6797C133.242 37.8724 133.635 37.9688 134.109 37.9688C134.5 37.9688 134.836 37.888 135.117 37.7266C135.404 37.5599 135.638 37.3333 135.82 37.0469C136.008 36.7604 136.146 36.4323 136.234 36.0625C136.323 35.6875 136.367 35.2891 136.367 34.8672ZM141.109 31.875V39H139.664V30.5469H141.07L141.109 31.875ZM143.75 30.5L143.742 31.8438C143.622 31.8177 143.508 31.8021 143.398 31.7969C143.294 31.7865 143.174 31.7812 143.039 31.7812C142.706 31.7812 142.411 31.8333 142.156 31.9375C141.901 32.0417 141.685 32.1875 141.508 32.375C141.331 32.5625 141.19 32.7865 141.086 33.0469C140.987 33.3021 140.922 33.5833 140.891 33.8906L140.484 34.125C140.484 33.6146 140.534 33.1354 140.633 32.6875C140.737 32.2396 140.896 31.8438 141.109 31.5C141.323 31.151 141.594 30.8802 141.922 30.6875C142.255 30.4896 142.651 30.3906 143.109 30.3906C143.214 30.3906 143.333 30.4036 143.469 30.4297C143.604 30.4505 143.698 30.474 143.75 30.5ZM149.758 37.5547V33.2031C149.758 32.8698 149.69 32.5807 149.555 32.3359C149.424 32.0859 149.227 31.8932 148.961 31.7578C148.695 31.6224 148.367 31.5547 147.977 31.5547C147.612 31.5547 147.292 31.6172 147.016 31.7422C146.745 31.8672 146.531 32.0312 146.375 32.2344C146.224 32.4375 146.148 32.6562 146.148 32.8906H144.703C144.703 32.5885 144.781 32.2891 144.938 31.9922C145.094 31.6953 145.318 31.4271 145.609 31.1875C145.906 30.9427 146.26 30.75 146.672 30.6094C147.089 30.4635 147.552 30.3906 148.062 30.3906C148.677 30.3906 149.219 30.4948 149.688 30.7031C150.161 30.9115 150.531 31.2266 150.797 31.6484C151.068 32.0651 151.203 32.5885 151.203 33.2188V37.1562C151.203 37.4375 151.227 37.737 151.273 38.0547C151.326 38.3724 151.401 38.6458 151.5 38.875V39H149.992C149.919 38.8333 149.862 38.612 149.82 38.3359C149.779 38.0547 149.758 37.7943 149.758 37.5547ZM150.008 33.875L150.023 34.8906H148.562C148.151 34.8906 147.784 34.9245 147.461 34.9922C147.138 35.0547 146.867 35.151 146.648 35.2812C146.43 35.4115 146.263 35.5755 146.148 35.7734C146.034 35.9661 145.977 36.1927 145.977 36.4531C145.977 36.7188 146.036 36.9609 146.156 37.1797C146.276 37.3984 146.456 37.5729 146.695 37.7031C146.94 37.8281 147.24 37.8906 147.594 37.8906C148.036 37.8906 148.427 37.7969 148.766 37.6094C149.104 37.4219 149.372 37.1927 149.57 36.9219C149.773 36.651 149.883 36.388 149.898 36.1328L150.516 36.8281C150.479 37.0469 150.38 37.2891 150.219 37.5547C150.057 37.8203 149.841 38.0755 149.57 38.3203C149.305 38.5599 148.987 38.7604 148.617 38.9219C148.253 39.0781 147.841 39.1562 147.383 39.1562C146.81 39.1562 146.307 39.0443 145.875 38.8203C145.448 38.5964 145.115 38.2969 144.875 37.9219C144.641 37.5417 144.523 37.1172 144.523 36.6484C144.523 36.1953 144.612 35.7969 144.789 35.4531C144.966 35.1042 145.221 34.8151 145.555 34.5859C145.888 34.3516 146.289 34.1745 146.758 34.0547C147.227 33.9349 147.75 33.875 148.328 33.875H150.008ZM154.922 31.875V39H153.477V30.5469H154.883L154.922 31.875ZM157.562 30.5L157.555 31.8438C157.435 31.8177 157.32 31.8021 157.211 31.7969C157.107 31.7865 156.987 31.7812 156.852 31.7812C156.518 31.7812 156.224 31.8333 155.969 31.9375C155.714 32.0417 155.497 32.1875 155.32 32.375C155.143 32.5625 155.003 32.7865 154.898 33.0469C154.799 33.3021 154.734 33.5833 154.703 33.8906L154.297 34.125C154.297 33.6146 154.346 33.1354 154.445 32.6875C154.549 32.2396 154.708 31.8438 154.922 31.5C155.135 31.151 155.406 30.8802 155.734 30.6875C156.068 30.4896 156.464 30.3906 156.922 30.3906C157.026 30.3906 157.146 30.4036 157.281 30.4297C157.417 30.4505 157.51 30.474 157.562 30.5Z" fill="white"/>
</svg>
