<svg xmlns="http://www.w3.org/2000/svg" width="18" height="18" fill="none" viewBox="0 0 18 18"><path fill="#fff" d="M17.425 16.3951L13.1409 11.9395C14.2424 10.6301 14.846 8.98262 14.846 7.26749C14.846 3.26026 11.5857 0 7.57847 0C3.57123 0 0.310974 3.26026 0.310974 7.26749C0.310974 11.2747 3.57123 14.535 7.57847 14.535C9.08284 14.535 10.5164 14.0812 11.7421 13.2199L16.0587 17.7093C16.2391 17.8967 16.4818 18 16.7418 18C16.988 18 17.2215 17.9062 17.3987 17.7355C17.7754 17.3731 17.7874 16.7721 17.425 16.3951ZM7.57847 1.89587C10.5404 1.89587 12.9501 4.30552 12.9501 7.26749C12.9501 10.2295 10.5404 12.6391 7.57847 12.6391C4.61649 12.6391 2.20684 10.2295 2.20684 7.26749C2.20684 4.30552 4.61649 1.89587 7.57847 1.89587Z"/></svg>