<svg width="18" height="18" viewBox="0 0 18 18" fill="none" xmlns="http://www.w3.org/2000/svg">
<path d="M9.00002 0C5.63159 0 2.89114 2.74041 2.89114 6.10884C2.89114 7.46244 3.68806 9.52102 5.39912 12.5872C6.56671 14.6794 7.72891 16.4466 7.77794 16.5211L8.61796 17.7943C8.70265 17.9227 8.84615 18 9.00002 18C9.15388 18 9.29738 17.9227 9.38207 17.7943L10.2221 16.5211C10.2706 16.4475 11.4244 14.6956 12.6009 12.5872C14.312 9.52116 15.1089 7.46258 15.1089 6.10884C15.1089 2.74041 12.3684 0 9.00002 0ZM11.8016 12.1411C10.6414 14.22 9.50587 15.9445 9.45802 16.0169L9.00002 16.7111L8.54216 16.0171C8.49405 15.9441 7.34982 14.2042 6.19845 12.1411C4.61131 9.29692 3.80656 7.26734 3.80656 6.10884C3.80656 3.24517 6.13632 0.915412 9.00002 0.915412C11.8637 0.915412 14.1935 3.24517 14.1935 6.10884C14.1935 7.26749 13.3887 9.297 11.8016 12.1411Z" fill="#800080"/>
<path d="M9 2.68359C7.13238 2.68359 5.61298 4.20303 5.61298 6.07062C5.61298 7.9382 7.13238 9.45764 9 9.45764C10.8676 9.45764 12.387 7.9382 12.387 6.07062C12.387 4.20303 10.8676 2.68359 9 2.68359ZM9 8.54223C7.63714 8.54223 6.52839 7.43348 6.52839 6.07062C6.52839 4.70775 7.63714 3.59901 9 3.59901C10.3629 3.59901 11.4716 4.70775 11.4716 6.07062C11.4716 7.43348 10.3629 8.54223 9 8.54223Z" fill="#800080"/>
</svg>
