<svg width="16" height="20" viewBox="0 0 16 20" fill="none" xmlns="http://www.w3.org/2000/svg">
<path d="M15.521 14.3922C15.5156 14.3896 15.5043 14.3847 15.4989 14.3824C15.2766 14.2895 13.3268 13.405 13.305 10.9994C13.2869 9.10341 14.6525 8.08497 15.0715 7.81793C15.083 7.8106 15.0913 7.80534 15.0958 7.80215C15.2652 7.68775 15.3098 7.4579 15.1958 7.28837C14.0543 5.59159 12.3142 5.33411 11.6063 5.30314C11.503 5.29277 11.3965 5.28751 11.2898 5.28751C10.4605 5.28751 9.68519 5.59915 9.06228 5.84952C8.68246 6.00223 8.32362 6.14642 8.11771 6.14642C7.88046 6.14642 7.51872 6.00008 7.1358 5.84522C6.55467 5.61012 5.89596 5.3436 5.17813 5.3436C5.16072 5.3436 5.14323 5.34374 5.12671 5.34411C3.47905 5.37027 1.92394 6.32691 1.06837 7.84031C-0.528609 10.6603 0.475307 14.926 2.23055 17.5079C2.90467 18.5003 3.92333 20 5.32832 20C5.35411 20 5.37997 19.9995 5.40649 19.9984C6.00814 19.9743 6.43167 19.7907 6.84127 19.6131C7.27791 19.4238 7.6904 19.245 8.35519 19.245C8.9867 19.245 9.37903 19.4178 9.79441 19.6008C10.2145 19.7858 10.6487 19.9771 11.2896 19.9771C11.3091 19.9771 11.3286 19.9769 11.3489 19.9765C12.8064 19.9481 13.6988 18.6189 14.4157 17.5509C15.189 16.4008 15.5781 15.283 15.7094 14.8557L15.7133 14.8431C15.772 14.666 15.6896 14.4726 15.521 14.3922Z" fill="black"/>
<path d="M7.94456 4.98283C8.01444 4.98838 8.08579 4.99113 8.1567 4.99113C8.15662 4.99113 8.15677 4.99113 8.1567 4.99113C9.14987 4.99113 10.2182 4.43675 10.9449 3.5439C11.7013 2.61008 12.0833 1.40899 11.9667 0.33076C11.9456 0.136927 11.7788 -0.00911474 11.5831 0.000443538C10.5754 0.0419369 9.36934 0.669375 8.65114 1.5251C8.04304 2.24331 7.44924 3.44424 7.60639 4.66096C7.62884 4.83471 7.76992 4.96905 7.94456 4.98283Z" fill="black"/>
</svg>
