<svg xmlns="http://www.w3.org/2000/svg" width="19" height="18" fill="none" viewBox="0 0 19 18"><g clip-path="url(#clip0_12_6)"><path fill="url(#paint0_linear_12_6)" d="M0.234375 2.63672C0.234375 2.77383 0.287109 2.91094 0.392613 3.00582L7.125 9.71364V17.4727C7.125 17.6625 7.23043 17.8418 7.39922 17.9367C7.48363 17.9789 7.56793 18 7.65234 18C7.75778 18 7.85273 17.9683 7.94769 17.9156L11.1118 15.8062C11.2593 15.7008 11.3438 15.5425 11.3438 15.3633V9.71364L18.0761 3.00582C18.1816 2.91094 18.2344 2.77383 18.2344 2.63672L9.23438 1.58203L0.234375 2.63672Z"/><path fill="url(#paint1_linear_12_6)" d="M18.2344 0.527344V2.63672H0.234375V0.527344C0.234375 0.231996 0.466371 0 0.761719 0H17.707C18.0024 0 18.2344 0.231996 18.2344 0.527344ZM10.8164 4.74609C10.8164 4.45461 10.5805 4.21875 10.2891 4.21875H8.17969C7.88821 4.21875 7.65234 4.45461 7.65234 4.74609C7.65234 5.03757 7.88821 5.27344 8.17969 5.27344H10.2891C10.5805 5.27344 10.8164 5.03757 10.8164 4.74609Z"/></g><defs><linearGradient id="paint0_linear_12_6" x1="9.234" x2="9.234" y1="18" y2="1.582" gradientUnits="userSpaceOnUse"><stop stop-color="purple"/><stop offset="1" stop-color="#930093"/><stop offset="1" stop-color="#00C0FF"/></linearGradient><linearGradient id="paint1_linear_12_6" x1="9.234" x2="9.234" y1="5.273" y2="0" gradientUnits="userSpaceOnUse"><stop stop-color="#fff" stop-opacity=".8"/><stop offset=".503" stop-color="purple"/><stop offset="1" stop-color="purple"/></linearGradient><clipPath id="clip0_12_6"><rect width="18" height="18" fill="#fff" transform="translate(0.234375)"/></clipPath></defs></svg>