<svg width="62" height="62" viewBox="0 0 62 62" fill="none" xmlns="http://www.w3.org/2000/svg">
<g filter="url(#filter0_d_3_94)">
<circle cx="31" cy="31" r="23" fill="#800080"/>
<g clip-path="url(#clip0_3_94)">
<path d="M36.1728 30.4512L26.9222 21.2262C26.6191 20.9241 26.1284 20.9246 25.8259 21.2277C25.5235 21.5308 25.5243 22.0218 25.8274 22.3241L34.5274 31L25.8271 39.6759C25.524 39.9783 25.5232 40.469 25.8255 40.7721C25.9772 40.924 26.1759 41 26.3746 41C26.5728 41 26.7708 40.9245 26.9222 40.7736L36.1728 31.5489C36.3188 31.4036 36.4007 31.206 36.4007 31C36.4007 30.7941 36.3185 30.5967 36.1728 30.4512Z" fill="white"/>
</g>
</g>
<defs>
<filter id="filter0_d_3_94" x="0" y="0" width="62" height="62" filterUnits="userSpaceOnUse" color-interpolation-filters="sRGB">
<feFlood flood-opacity="0" result="BackgroundImageFix"/>
<feColorMatrix in="SourceAlpha" type="matrix" values="0 0 0 0 0 0 0 0 0 0 0 0 0 0 0 0 0 0 127 0" result="hardAlpha"/>
<feOffset/>
<feGaussianBlur stdDeviation="4"/>
<feComposite in2="hardAlpha" operator="out"/>
<feColorMatrix type="matrix" values="0 0 0 0 0 0 0 0 0 0 0 0 0 0 0 0 0 0 0.15 0"/>
<feBlend mode="normal" in2="BackgroundImageFix" result="effect1_dropShadow_3_94"/>
<feBlend mode="normal" in="SourceGraphic" in2="effect1_dropShadow_3_94" result="shape"/>
</filter>
<clipPath id="clip0_3_94">
<rect width="20" height="20" fill="white" transform="translate(21 21)"/>
</clipPath>
</defs>
</svg>
