<svg width="16" height="20" viewBox="0 0 16 20" fill="none" xmlns="http://www.w3.org/2000/svg">
<path d="M7.61719 20C7.43293 20 7.25898 19.913 7.14797 19.7654L1.51863 12.1777C0.525273 10.8519 0 9.27488 0 7.61719C0 3.41719 3.41719 0 7.61719 0C11.8172 0 15.2344 3.41719 15.2344 7.61719C15.2344 9.27488 14.7091 10.8519 13.7157 12.1777L8.08641 19.7654C7.97539 19.913 7.80145 20 7.61719 20Z" fill="#800080"/>
<path d="M7.61719 10.5469C6.00129 10.5469 4.6875 9.23254 4.6875 7.61719C4.6875 6.00184 6.00129 4.6875 7.61719 4.6875C9.23309 4.6875 10.5469 6.00184 10.5469 7.61719C10.5469 9.23254 9.23309 10.5469 7.61719 10.5469Z" fill="url(#paint0_linear_10_240)"/>
<defs>
<linearGradient id="paint0_linear_10_240" x1="7.61719" y1="10.5469" x2="7.61719" y2="4.6875" gradientUnits="userSpaceOnUse">
<stop stop-color="white"/>
<stop offset="0.9973" stop-color="#FFB3FF"/>
</linearGradient>
</defs>
</svg>
