<svg xmlns="http://www.w3.org/2000/svg" width="18" height="18" fill="none" viewBox="0 0 18 18"><g clip-path="url(#clip0_10_231)"><path fill="#930093" d="M13.6884 15.9063C13.8777 16.2454 13.7564 16.6737 13.4173 16.863C13.1959 16.9866 12.9668 17.102 12.736 17.2062C12.6421 17.2486 12.5438 17.2687 12.4471 17.2687C12.1792 17.2687 11.9233 17.1148 11.8058 16.8548C11.646 16.5009 11.8034 16.0844 12.1573 15.9246C12.3518 15.8368 12.545 15.7394 12.7317 15.6352C13.0708 15.4459 13.4992 15.5673 13.6884 15.9063ZM16.1161 13.3833C15.8045 13.1515 15.3641 13.2163 15.1323 13.5278C15.0048 13.6991 14.8684 13.8672 14.7268 14.0273C14.4697 14.3183 14.497 14.7626 14.7879 15.0198C14.9217 15.1381 15.0878 15.1962 15.2533 15.1962C15.4478 15.1962 15.6415 15.1159 15.7804 14.9587C15.9481 14.7691 16.1096 14.5701 16.2606 14.3671C16.4924 14.0556 16.4277 13.6151 16.1161 13.3833ZM17.292 10.0858C16.9128 10.0033 16.538 10.2439 16.4554 10.6233C16.41 10.832 16.3551 11.0411 16.2921 11.2449C16.1775 11.6159 16.3853 12.0096 16.7563 12.1243C16.8255 12.1456 16.8953 12.1558 16.9641 12.1558C17.2643 12.1558 17.5424 11.9619 17.6357 11.66C17.7104 11.4182 17.7756 11.17 17.8295 10.9224C17.9121 10.543 17.6715 10.1685 17.292 10.0858ZM8.29715 3.375V8.70877L5.71883 11.2871C5.44425 11.5617 5.44425 12.0068 5.71883 12.2814C5.85615 12.4187 6.03604 12.4874 6.21604 12.4874C6.39597 12.4874 6.57593 12.4187 6.71326 12.2814L9.49749 9.49718C9.62933 9.36534 9.7034 9.18647 9.7034 9V3.375C9.7034 2.98666 9.38861 2.67188 9.00027 2.67188C8.61194 2.67188 8.29715 2.98666 8.29715 3.375ZM17.2971 1.51172C16.9088 1.51172 16.594 1.82651 16.594 2.21484V4.16728C14.9574 1.60059 12.0993 0 9.00027 0C6.59629 0 4.3362 0.936176 2.63629 2.63602C0.93645 4.33593 0.000274658 6.59602 0.000274658 9C0.000274658 11.404 0.93645 13.6641 2.63629 15.364C4.3362 17.0638 6.59629 18 9.00027 18C9.00622 18 9.01195 17.9993 9.01785 17.9991C9.02376 17.9993 9.02949 18 9.03543 18C9.28884 18 9.54474 17.9893 9.79611 17.9683C10.1831 17.9359 10.4705 17.5959 10.4381 17.2089C10.4057 16.822 10.0662 16.5344 9.67876 16.567C9.46627 16.5847 9.24985 16.5938 9.03543 16.5938C9.02949 16.5938 9.02376 16.5945 9.01785 16.5946C9.01195 16.5945 9.00622 16.5938 9.00027 16.5938C4.81306 16.5938 1.40652 13.1872 1.40652 9C1.40652 4.81279 4.81306 1.40625 9.00027 1.40625C11.6988 1.40625 14.1808 2.8446 15.5371 5.13281H13.6037C13.2154 5.13281 12.9006 5.4476 12.9006 5.83594C12.9006 6.22427 13.2154 6.53906 13.6037 6.53906H15.7503C16.1785 6.53906 16.5791 6.41872 16.9202 6.21025C16.9421 6.19773 16.9632 6.18427 16.9833 6.16975C17.5952 5.76717 18.0003 5.0747 18.0003 4.28906V2.21484C18.0003 1.82651 17.6855 1.51172 17.2971 1.51172Z"/></g><defs><clipPath id="clip0_10_231"><rect width="18" height="18" fill="#fff" transform="translate(0.000274658)"/></clipPath></defs></svg>