<svg width="16" height="16" viewBox="0 0 16 16" fill="none" xmlns="http://www.w3.org/2000/svg">
<path d="M7.99998 1.44436C10.1358 1.44436 10.3886 1.45262 11.2322 1.49104C12.012 1.5266 12.4355 1.65677 12.7175 1.76631C13.0653 1.89439 13.38 2.09891 13.6382 2.3648C13.9041 2.62306 14.1087 2.93772 14.2367 3.28556C14.3463 3.5675 14.4765 3.99105 14.512 4.77083C14.5504 5.61444 14.5587 5.86717 14.5587 8.003C14.5587 10.1388 14.5504 10.3916 14.512 11.2352C14.4765 12.015 14.3463 12.4385 14.2367 12.7204C14.1035 13.0653 13.8997 13.3785 13.6382 13.6399C13.3768 13.9014 13.0636 14.1052 12.7187 14.2384C12.4368 14.348 12.0132 14.4781 11.2335 14.5137C10.3902 14.5521 10.1371 14.5604 8.00125 14.5604C5.8654 14.5604 5.61235 14.5521 4.76905 14.5137C3.98926 14.4781 3.56571 14.348 3.28376 14.2384C2.93592 14.1103 2.62126 13.9058 2.363 13.6399C2.09711 13.3817 1.89258 13.067 1.7645 12.7192C1.65496 12.4372 1.52479 12.0137 1.48923 11.2339C1.45081 10.3903 1.44255 10.1376 1.44255 8.00173C1.44255 5.8659 1.45081 5.61317 1.48923 4.76956C1.52479 3.98978 1.65496 3.56623 1.7645 3.28429C1.89258 2.93645 2.09711 2.62179 2.363 2.36353C2.62126 2.09764 2.93592 1.89312 3.28376 1.76504C3.56571 1.6555 3.98926 1.52533 4.76905 1.48977C5.61266 1.45135 5.8654 1.44309 8.00125 1.44309L7.99998 1.44436ZM8.00125 0.00195312C5.82888 0.00195312 5.55646 0.0111607 4.70333 0.0502134C3.85019 0.0892662 3.26948 0.225475 2.76052 0.423278C2.22684 0.624082 1.74338 0.938842 1.34381 1.34562C0.937597 1.74534 0.623384 2.22879 0.423043 2.76232C0.22365 3.27127 0.0883926 3.85262 0.0496569 4.70384C0.0109213 5.55506 0.00139618 5.82938 0.00139618 8.00173C0.00139618 10.1741 0.0106038 10.4465 0.0496569 11.2996C0.0887101 12.1528 0.22365 12.7322 0.421455 13.2412C0.622262 13.7748 0.937024 14.2583 1.34381 14.6578C1.74345 15.0646 2.22689 15.3795 2.76052 15.5805C3.26852 15.778 3.85083 15.9132 4.70206 15.9523C5.55329 15.9914 5.82761 16.0002 7.99998 16.0002C10.1724 16.0002 10.4448 15.991 11.2979 15.9523C12.151 15.9136 12.7305 15.778 13.2395 15.5805C13.7708 15.375 14.2533 15.0607 14.6562 14.6579C15.059 14.255 15.3733 13.7725 15.5788 13.2412C15.7763 12.7331 15.9116 12.1508 15.9506 11.2996C15.9897 10.4484 15.9986 10.1741 15.9986 8.00173C15.9986 5.82938 15.9894 5.55697 15.9506 4.70384C15.9119 3.85071 15.7763 3.27127 15.5788 2.76232C15.3778 2.22869 15.0629 1.74526 14.6562 1.34562C14.2564 0.939415 13.773 0.625205 13.2395 0.424866C12.7305 0.225475 12.1491 0.0902187 11.2979 0.0514834C10.4467 0.0127482 10.1724 0.00322313 7.99998 0.00322313L8.00125 0.00195312Z" fill="white"/>
<path d="M8.0019 3.89502C7.18949 3.89502 6.39532 4.13593 5.71983 4.58728C5.04434 5.03864 4.51786 5.68017 4.20698 6.43074C3.8961 7.18131 3.81477 8.00721 3.97329 8.804C4.13181 9.60079 4.52305 10.3327 5.09753 10.9071C5.67201 11.4815 6.40394 11.8727 7.20075 12.0312C7.99756 12.1896 8.82347 12.1082 9.57402 11.7973C10.3246 11.4864 10.9661 10.9599 11.4174 10.2843C11.8687 9.60881 12.1095 8.81463 12.1095 8.00223C12.1095 7.46282 12.0033 6.92869 11.7969 6.43034C11.5905 5.93199 11.2879 5.47919 10.9065 5.09779C10.525 4.71639 10.0722 4.41386 9.57382 4.20749C9.07546 4.00111 8.54131 3.89494 8.0019 3.89502ZM8.0019 10.6683C7.47441 10.6683 6.95877 10.5119 6.52017 10.2188C6.08158 9.92576 5.73974 9.50923 5.53788 9.0219C5.33602 8.53456 5.2832 7.99831 5.38611 7.48096C5.48902 6.96361 5.74303 6.4884 6.11602 6.11541C6.48901 5.74242 6.96423 5.48841 7.48159 5.3855C7.99894 5.2826 8.5352 5.33541 9.02254 5.53727C9.50987 5.73913 9.92641 6.08097 10.2195 6.51956C10.5125 6.95815 10.6689 7.47379 10.6689 8.00127C10.6689 8.70861 10.388 9.38698 9.88779 9.88714C9.38762 10.3873 8.70925 10.6683 8.0019 10.6683Z" fill="white"/>
<path d="M12.2698 4.69469C12.8001 4.69469 13.23 4.26482 13.23 3.73455C13.23 3.20428 12.8001 2.77441 12.2698 2.77441C11.7396 2.77441 11.3097 3.20428 11.3097 3.73455C11.3097 4.26482 11.7396 4.69469 12.2698 4.69469Z" fill="white"/>
</svg>
