<svg width="21" height="21" viewBox="0 0 21 21" fill="none" xmlns="http://www.w3.org/2000/svg">
<path fill-rule="evenodd" clip-rule="evenodd" d="M20.1011 10.7281C20.1017 10.0422 20.041 9.35765 19.9197 8.68259H10.5V12.5506H15.882C15.7709 13.1625 15.5368 13.7456 15.1938 14.2645C14.8508 14.7833 14.4061 15.2271 13.8865 15.5691V18.0787H17.1185C19.0095 16.3371 20.1006 13.7736 20.1006 10.7281H20.1011Z" fill="#3E82F1"/>
<path fill-rule="evenodd" clip-rule="evenodd" d="M10.5 20.5C13.2 20.5 15.464 19.6045 17.1185 18.0775L13.8865 15.568C12.991 16.168 11.8455 16.523 10.5 16.523C7.8955 16.523 5.69044 14.7641 4.90449 12.4H1.56348V14.9944C2.3965 16.6501 3.67329 18.0417 5.25132 19.0139C6.82935 19.9861 8.64652 20.5006 10.5 20.5Z" fill="#32A753"/>
<path fill-rule="evenodd" clip-rule="evenodd" d="M4.90503 12.4006C4.4863 11.1685 4.4863 9.83262 4.90503 8.60056V6.00955H1.56346C0.864155 7.40344 0.5 8.94137 0.5 10.5008C0.5 12.0603 0.864155 13.5982 1.56346 14.9921L4.90503 12.4006Z" fill="#F9BB00"/>
<path d="M1.56348 6.00955L4.90505 8.60056C5.69157 6.23652 7.89606 4.47753 10.5006 4.47753C11.9691 4.47753 13.2871 4.98315 14.3236 5.97303L17.1921 3.10449C15.4601 1.49101 13.1966 0.500001 10.5 0.500001C8.64603 0.499351 6.82841 1.01428 5.25027 1.98724C3.67213 2.96019 2.39564 4.35284 1.56348 6.00955Z" fill="#E74133"/>
</svg>
