<svg width="16" height="14" viewBox="0 0 16 14" fill="none" xmlns="http://www.w3.org/2000/svg">
<path d="M5.03168 14C11.0694 14 14.3718 8.61332 14.3718 3.94201C14.3718 3.78901 14.3718 3.6367 14.3622 3.48508C15.0047 2.98467 15.5593 2.36507 16 1.65529C15.4009 1.94116 14.7653 2.12864 14.1146 2.21146C14.7998 1.76968 15.3127 1.07484 15.5578 0.25624C14.9134 0.667998 14.2084 0.958185 13.4733 1.11428C12.9783 0.547548 12.3237 0.172275 11.6108 0.0465293C10.8978 -0.0792164 10.1663 0.0515763 9.52931 0.418668C8.89234 0.785759 8.38548 1.36868 8.08716 2.07723C7.78884 2.78579 7.71569 3.58046 7.87904 4.33829C6.57392 4.26784 5.29715 3.90261 4.13161 3.26632C2.96607 2.63004 1.93782 1.73692 1.1136 0.644941C0.693819 1.42314 0.565248 2.34438 0.754066 3.22108C0.942885 4.09778 1.43489 4.86402 2.12992 5.3638C1.60751 5.34713 1.0965 5.19537 0.64 4.92134C0.64 4.93582 0.64 4.95098 0.64 4.96614C0.640207 5.78229 0.902567 6.57324 1.38258 7.20483C1.86259 7.83642 2.53071 8.26976 3.2736 8.43137C2.79032 8.5733 2.28325 8.59405 1.79136 8.49202C2.00113 9.19442 2.40951 9.80865 2.95941 10.2488C3.5093 10.689 4.17319 10.933 4.85824 10.9469C3.69583 11.9307 2.25988 12.4647 0.78144 12.4631C0.520258 12.4626 0.259331 12.4455 0 12.4121C1.50121 13.4495 3.24794 13.9998 5.03168 13.9972" fill="white"/>
</svg>
