<svg width="18" height="26" viewBox="0 0 18 26" fill="none" xmlns="http://www.w3.org/2000/svg">
<path d="M17.0312 8.34375H0.46875C0.15625 8.34375 0 8.1875 0 7.875V6.625C0 6.3125 0.15625 6.15625 0.46875 6.15625H17.0312C17.3438 6.15625 17.5 6.3125 17.5 6.625V7.875C17.5 8.1875 17.3438 8.34375 17.0312 8.34375ZM17.0312 14.5938H0.46875C0.15625 14.5938 0 14.4375 0 14.125V12.875C0 12.5625 0.15625 12.4062 0.46875 12.4062H17.0312C17.3438 12.4062 17.5 12.5625 17.5 12.875V14.125C17.5 14.4375 17.3438 14.5938 17.0312 14.5938ZM17.0312 20.8438H0.46875C0.15625 20.8438 0 20.6875 0 20.375V19.125C0 18.8125 0.15625 18.6562 0.46875 18.6562H17.0312C17.3438 18.6562 17.5 18.8125 17.5 19.125V20.375C17.5 20.6875 17.3438 20.8438 17.0312 20.8438Z" fill="white"/>
</svg>
