<svg width="16" height="16" viewBox="0 0 16 16" fill="none" xmlns="http://www.w3.org/2000/svg">
<path d="M15.9683 12.5931C15.868 12.1164 15.5534 11.6897 15.1016 11.4231C14.265 10.933 13.3982 10.4597 12.5616 10.003L11.9894 9.68962C11.2598 9.29293 10.7612 9.36626 10.4701 9.49961C10.1923 9.62628 9.82754 9.92963 9.67024 10.6597C9.66689 10.6697 9.66354 10.683 9.66354 10.6963C9.61336 10.8863 9.47279 10.963 9.39248 10.993C9.20842 11.0564 8.99092 11.013 8.81019 10.873C7.41471 9.77961 6.20663 8.57955 5.11567 7.20947C4.97513 7.03612 4.93162 6.82277 4.99853 6.63943C5.02866 6.55609 5.11232 6.40608 5.34658 6.35609C5.35661 6.35275 5.37001 6.35275 5.38004 6.34941C6.12297 6.18607 6.41746 5.80604 6.53793 5.51603C6.66845 5.18935 6.71194 4.62932 6.17315 3.82259C5.76824 3.21922 5.43024 2.55918 5.10227 1.91915C4.9517 1.62914 4.80445 1.33912 4.65051 1.05242C4.34263 0.485715 3.931 0.132362 3.46251 0.0290228C3.03749 -0.0609688 2.58908 0.0590336 2.16407 0.37906C1.7424 0.699067 1.29732 1.05242 0.875674 1.45912C-0.031232 2.33918 -0.238713 3.45257 0.276639 4.67597C2.46191 9.88629 6.22671 13.6099 11.4707 15.7466C11.8789 15.9167 12.2805 16 12.662 16C13.3514 16 13.9839 15.7266 14.5327 15.1866C14.9778 14.7499 15.3693 14.2466 15.704 13.8032C15.9616 13.4532 16.0554 13.0232 15.9683 12.5931Z" fill="white"/>
</svg>
