<svg width="25" height="15" viewBox="0 0 25 15" fill="none" xmlns="http://www.w3.org/2000/svg">
<path d="M0.243445 13.5633L0.23877 1.45958C0.23877 0.923425 0.346497 0.226169 0.827812 0.0637012C0.950149 0.0224025 1.0812 0 1.21747 0H22.987C23.6594 0 24.2045 0.545114 24.2045 1.21753V13.7825C24.2045 13.9187 24.1821 14.0498 24.1408 14.1721C23.9783 14.6534 23.2675 14.7808 22.7314 14.7808H1.46098C0.788558 14.7808 0.243445 14.2357 0.243445 13.5633Z" fill="#5F6C75"/>
<path d="M24.1407 14.172C23.9786 14.6537 23.5232 14.9999 22.987 14.9999H1.21753C0.545114 14.9999 0 14.4548 0 13.7824V1.21748C0 0.68128 0.346266 0.225923 0.827922 0.0637474V13.5876C0.827922 13.9104 1.08959 14.172 1.41234 14.172H24.1407Z" fill="#4E5A61"/>
<path d="M11.2496 8.02597C11.1604 8.12191 11.0333 8.18181 10.8926 8.18181H7.62959C7.36076 8.18181 7.14258 7.96363 7.14258 7.6948V6.91558C7.14258 6.78554 7.19371 6.6672 7.27699 6.58002L9.5885 7.04093L11.2496 8.02597Z" fill="#E0F5FC"/>
<path d="M11.3795 6.91553V7.69475C11.3795 7.82284 11.3303 7.93923 11.2494 8.02592L7.27686 6.57998C7.36549 6.48647 7.49065 6.42852 7.62945 6.42852H10.8924C11.1613 6.42852 11.3795 6.6467 11.3795 6.91553Z" fill="#F5FCFF"/>
<path d="M16.9317 8.02597C16.8426 8.12191 16.7155 8.18181 16.5747 8.18181H13.3117C13.0429 8.18181 12.8247 7.96363 12.8247 7.6948V6.91558C12.8247 6.78554 12.8758 6.6672 12.9591 6.58002L15.2706 7.04093L16.9317 8.02597Z" fill="#E0F5FC"/>
<path d="M17.0616 6.91553V7.69475C17.0616 7.82284 17.0124 7.93923 16.9315 8.02592L12.959 6.57998C13.0476 6.48647 13.1728 6.42852 13.3116 6.42852H16.5746C16.8434 6.42852 17.0616 6.6467 17.0616 6.91553Z" fill="#F5FCFF"/>
<path d="M22.6133 8.02597C22.5242 8.12191 22.3971 8.18181 22.2563 8.18181H18.9934C18.7245 8.18181 18.5063 7.96363 18.5063 7.6948V6.91558C18.5063 6.78554 18.5575 6.6672 18.6408 6.58002L20.9523 7.04093L22.6133 8.02597Z" fill="#E0F5FC"/>
<path d="M22.7432 6.91553V7.69475C22.7432 7.82284 22.694 7.93923 22.6132 8.02592L18.6406 6.57998C18.7293 6.48647 18.8544 6.42852 18.9932 6.42852H22.2562C22.525 6.42852 22.7432 6.6467 22.7432 6.91553Z" fill="#F5FCFF"/>
<path d="M6.67198 13.5405H1.94795C1.67897 13.5405 1.46094 13.3225 1.46094 13.0535V12.2743C1.46094 12.0053 1.67897 11.7872 1.94795 11.7872H6.67198C6.94095 11.7872 7.15899 12.0053 7.15899 12.2743V13.0535C7.15899 13.3225 6.94095 13.5405 6.67198 13.5405Z" fill="#F5FCFF"/>
<path d="M12.3214 13.5633H9.10713C8.83815 13.5633 8.62012 13.3452 8.62012 13.0763V12.297C8.62012 12.0281 8.83815 11.81 9.10713 11.81H12.3214C12.5904 11.81 12.8084 12.0281 12.8084 12.297V13.0763C12.8084 13.3452 12.5904 13.5633 12.3214 13.5633Z" fill="#F5FCFF"/>
<path d="M22.0615 4.96694C21.9681 4.96694 21.8746 4.93129 21.8033 4.85999C21.6606 4.71729 21.6606 4.48606 21.8033 4.34341C22.1569 3.98975 22.3517 3.51958 22.3517 3.01937C22.3517 2.51916 22.1569 2.049 21.8033 1.69533C21.6606 1.55264 21.6606 1.3214 21.8033 1.17876C21.9459 1.03616 22.1772 1.03616 22.3198 1.17876C22.8114 1.6704 23.0822 2.32411 23.0822 3.01937C23.0822 3.71463 22.8114 4.36835 22.3198 4.85999C22.2485 4.93129 22.155 4.96694 22.0615 4.96694Z" fill="#4E5A61"/>
<path d="M20.8438 4.47992C20.7503 4.47992 20.6568 4.44427 20.5855 4.37298C20.4429 4.23028 20.4429 3.99905 20.5855 3.8564C21.047 3.39486 21.047 2.64393 20.5855 2.18239C20.4429 2.0397 20.4429 1.80846 20.5855 1.66582C20.7281 1.52322 20.9594 1.52322 21.102 1.66582C21.8484 2.41221 21.8484 3.62663 21.102 4.37302C21.0307 4.44427 20.9372 4.47992 20.8438 4.47992Z" fill="#4E5A61"/>
<path d="M19.6265 4.01737C19.533 4.01737 19.4395 3.98172 19.3682 3.91042C19.2256 3.76773 19.2256 3.5365 19.3682 3.39385C19.5612 3.20085 19.5612 2.88687 19.3682 2.69387C19.2256 2.55117 19.2256 2.31994 19.3682 2.17729C19.5109 2.03469 19.7421 2.03469 19.8847 2.17729C20.3626 2.65515 20.3626 3.43262 19.8847 3.91047C19.8134 3.98172 19.7199 4.01737 19.6265 4.01737Z" fill="#4E5A61"/>
<path d="M11.3471 10.3734H8.66848C8.46676 10.3734 8.30322 10.2099 8.30322 10.0081C8.30322 9.80637 8.46676 9.64288 8.66848 9.64288H11.3471C11.5488 9.64288 11.7123 9.80637 11.7123 10.0081C11.7123 10.2099 11.5488 10.3734 11.3471 10.3734Z" fill="#4E5A61"/>
<path d="M15.4867 10.3734H12.8081C12.6064 10.3734 12.4429 10.2099 12.4429 10.0081C12.4429 9.80637 12.6064 9.64288 12.8081 9.64288H15.4867C15.6884 9.64288 15.852 9.80637 15.852 10.0081C15.852 10.2099 15.6884 10.3734 15.4867 10.3734Z" fill="#4E5A61"/>
<path d="M4.45022 4.43523C4.36159 4.52679 4.2374 4.58328 4.10055 4.58328H1.94795C1.67912 4.58328 1.46094 4.3651 1.46094 4.09627V1.9466C1.46094 1.80877 1.51841 1.68458 1.61045 1.59546L3.35975 2.68895L4.45022 4.43523Z" fill="#F48931"/>
<path d="M4.58746 1.94657V4.09624C4.58746 4.22822 4.53486 4.34754 4.45012 4.4352L1.61035 1.59543C1.69801 1.51118 1.81685 1.45955 1.94785 1.45955H4.10045C4.36928 1.45955 4.58746 1.67773 4.58746 1.94657Z" fill="#F9AF38"/>
<path d="M5.56792 8.02597C5.47879 8.12191 5.35168 8.18181 5.21094 8.18181H1.94795C1.67912 8.18181 1.46094 7.96363 1.46094 7.6948V6.91558C1.46094 6.78554 1.51207 6.6672 1.59535 6.58002L3.90686 7.04093L5.56792 8.02597Z" fill="#E0F5FC"/>
<path d="M5.69781 6.91553V7.69475C5.69781 7.82284 5.64862 7.93923 5.56778 8.02592L1.59521 6.57998C1.68385 6.48647 1.80901 6.42852 1.94781 6.42852H5.2108C5.47963 6.42852 5.69781 6.6467 5.69781 6.91553Z" fill="#F5FCFF"/>
<path d="M22.2563 13.5633H17.5485C17.2796 13.5633 17.0615 13.3453 17.0615 13.0763V11.8116C17.0615 11.5426 17.2796 11.3246 17.5485 11.3246H22.2563C22.5253 11.3246 22.7434 11.5426 22.7434 11.8116V13.0763C22.7434 13.3453 22.5253 13.5633 22.2563 13.5633Z" fill="#DF646E"/>
<path d="M22.5297 13.4791C22.4518 13.5322 22.3578 13.5634 22.2565 13.5634H17.5485C17.2797 13.5634 17.0615 13.3452 17.0615 13.0764V11.8116C17.0615 11.6441 17.1463 11.496 17.2753 11.4088L22.5297 13.4791Z" fill="#DC4955"/>
</svg>
