<svg width="24" height="24" viewBox="0 0 24 24" fill="none" xmlns="http://www.w3.org/2000/svg">
<path d="M18.717 18.3586C18.2542 18.3602 17.7956 18.2702 17.3678 18.0936C16.94 17.917 16.5514 17.6574 16.2245 17.3298L12.6241 13.7271C12.4967 13.6053 12.3273 13.5373 12.1511 13.5373C11.9749 13.5373 11.8055 13.6053 11.6782 13.7271L8.06557 17.3397C7.73887 17.6678 7.35039 17.9279 6.92257 18.105C6.49474 18.2821 6.03607 18.3727 5.57304 18.3715H4.86816L9.43046 22.9338C10.1147 23.6166 11.0419 24.0001 12.0085 24.0001C12.9752 24.0001 13.9024 23.6166 14.5866 22.9338L19.158 18.3616L18.717 18.3586Z" fill="#32BCAD"/>
<path d="M5.5738 5.62665C6.03683 5.62541 6.49552 5.71597 6.92335 5.89308C7.35118 6.07018 7.73966 6.33033 8.06633 6.65849L11.6789 10.2718C11.8045 10.397 11.9746 10.4673 12.1519 10.4673C12.3292 10.4673 12.4993 10.397 12.6248 10.2718L16.2245 6.67218C16.5509 6.34361 16.9393 6.08314 17.3672 5.90588C17.7951 5.72862 18.2539 5.6381 18.717 5.63958H19.1504L14.579 1.06816C14.2405 0.729517 13.8386 0.460887 13.3962 0.27761C12.9539 0.0943326 12.4798 0 12.0009 0C11.5221 0 11.048 0.0943326 10.6056 0.27761C10.1633 0.460887 9.76137 0.729517 9.42286 1.06816L4.86816 5.62665H5.5738Z" fill="#32BCAD"/>
<path d="M22.9318 9.42175L20.1694 6.65928C20.1071 6.68475 20.0405 6.69817 19.9732 6.69882H18.717C18.0634 6.70046 17.4368 6.96006 16.9735 7.42119L13.3738 11.0186C13.0496 11.3422 12.6103 11.5239 12.1523 11.5239C11.6942 11.5239 11.2549 11.3422 10.9307 11.0186L7.31738 7.4075C6.8542 6.94609 6.22759 6.68621 5.57382 6.68438H4.03176C3.96821 6.68295 3.90541 6.67033 3.84623 6.64712L1.06627 9.42175C0.38347 10.106 0 11.0332 0 11.9998C0 12.9665 0.38347 13.8937 1.06627 14.5779L3.84015 17.3518C3.8992 17.3281 3.96208 17.3155 4.02568 17.3145H5.57382C6.22758 17.3126 6.85416 17.0527 7.31738 16.5914L10.93 12.9788C11.5831 12.3264 12.7214 12.3264 13.3738 12.9788L16.9735 16.5777C17.4368 17.0388 18.0634 17.2984 18.717 17.3001H19.9732C20.0405 17.3006 20.1071 17.314 20.1694 17.3396L22.9318 14.5771C23.2705 14.2386 23.5391 13.8367 23.7224 13.3944C23.9057 12.952 24 12.4779 24 11.9991C24 11.5203 23.9057 11.0461 23.7224 10.6038C23.5391 10.1614 23.2705 9.75951 22.9318 9.42099" fill="#32BCAD"/>
</svg>
