<svg width="25" height="22" viewBox="0 0 25 22" fill="none" xmlns="http://www.w3.org/2000/svg">
<path d="M10.7246 9.62407C10.7246 8.9028 8.34152 8.31815 5.40187 8.31815C2.46222 8.31815 0.0791016 8.9028 0.0791016 9.62407V19.3063C0.0791016 20.0276 2.46222 20.6122 5.40187 20.6122C8.34152 20.6122 10.7246 20.0276 10.7246 19.3063V9.62407Z" fill="#FFD200"/>
<path d="M5.43932 10.4199C8.23331 10.4199 10.4983 9.94941 10.4983 9.36903C10.4983 8.78864 8.23331 8.31815 5.43932 8.31815C2.64534 8.31815 0.380371 8.78864 0.380371 9.36903C0.380371 9.94941 2.64534 10.4199 5.43932 10.4199Z" fill="#FFB400"/>
<path d="M10.7247 9.3924V19.3061C10.7247 19.8462 9.30567 20.4368 6.81006 20.566C7.14083 20.4647 8.62039 20.0501 8.29298 19.143C7.77283 17.7025 7.24597 16.9459 7.15025 15.4569C7.05594 13.9896 7.1945 12.2279 7.38013 10.7651C7.90506 10.6119 8.08386 10.3447 8.08657 9.83837C8.77017 9.85514 10.0769 9.88662 10.7247 9.3924Z" fill="#FFB400"/>
<path d="M5.40185 20.6911C2.74653 20.6911 0 20.173 0 19.3061C0 19.2625 0.0353475 19.2272 0.0789514 19.2272C0.122555 19.2272 0.157903 19.2625 0.157903 19.3061C0.157903 19.8988 2.26495 20.5332 5.40172 20.5332C8.53849 20.5332 10.6454 19.8988 10.6454 19.3061C10.6454 19.2625 10.6808 19.2272 10.7244 19.2272C10.768 19.2272 10.8033 19.2625 10.8033 19.3061C10.8036 20.1732 8.05717 20.6911 5.40185 20.6911Z" fill="#FFA000"/>
<path d="M5.40185 11.0088C2.74653 11.0088 0 10.4908 0 9.62396C0 8.75718 2.74653 8.23909 5.40185 8.23909C8.05717 8.23909 10.8036 8.75718 10.8036 9.62396C10.8036 10.4908 8.05717 11.0088 5.40185 11.0088ZM5.40185 8.39699C2.26521 8.39699 0.158032 9.03131 0.158032 9.62396C0.158032 10.2166 2.26508 10.8509 5.40185 10.8509C8.53862 10.8509 10.6455 10.2166 10.6455 9.62396C10.6455 9.03131 8.53862 8.39699 5.40185 8.39699Z" fill="#FFA000"/>
<path d="M5.40185 19.0775C2.74653 19.0775 0 18.5594 0 17.6925C0 17.6489 0.0353475 17.6136 0.0789514 17.6136C0.122555 17.6136 0.157903 17.6489 0.157903 17.6925C0.157903 18.2852 2.26495 18.9196 5.40172 18.9196C8.53849 18.9196 10.6454 18.2852 10.6454 17.6925C10.6454 17.6489 10.6808 17.6136 10.7244 17.6136C10.768 17.6136 10.8033 17.6489 10.8033 17.6925C10.8036 18.5594 8.05717 19.0775 5.40185 19.0775Z" fill="#FFA000"/>
<path d="M5.40185 17.4637C2.74653 17.4637 0 16.9456 0 16.0788C0 16.0352 0.0353475 15.9999 0.0789514 15.9999C0.122555 15.9999 0.157903 16.0352 0.157903 16.0788C0.157903 16.6714 2.26495 17.3058 5.40172 17.3058C8.53849 17.3058 10.6454 16.6714 10.6454 16.0788C10.6454 16.0352 10.6808 15.9999 10.7244 15.9999C10.768 15.9999 10.8033 16.0352 10.8033 16.0788C10.8036 16.9456 8.05717 17.4637 5.40185 17.4637Z" fill="#FFA000"/>
<path d="M5.40185 15.85C2.74653 15.85 0 15.332 0 14.4652C0 14.4216 0.0353475 14.3862 0.0789514 14.3862C0.122555 14.3862 0.157903 14.4216 0.157903 14.4652C0.157903 15.0577 2.26495 15.6921 5.40172 15.6921C8.53849 15.6921 10.6454 15.0577 10.6454 14.4652C10.6454 14.4216 10.6808 14.3862 10.7244 14.3862C10.768 14.3862 10.8033 14.4216 10.8033 14.4652C10.8036 15.332 8.05717 15.85 5.40185 15.85Z" fill="#FFA000"/>
<path d="M5.40185 14.2364C2.74653 14.2364 0 13.7183 0 12.8515C0 12.8079 0.0353475 12.7725 0.0789514 12.7725C0.122555 12.7725 0.157903 12.8079 0.157903 12.8515C0.157903 13.444 2.26495 14.0785 5.40172 14.0785C8.53849 14.0785 10.6454 13.444 10.6454 12.8515C10.6454 12.8079 10.6808 12.7725 10.7244 12.7725C10.768 12.7725 10.8033 12.8079 10.8033 12.8515C10.8036 13.7184 8.05717 14.2364 5.40185 14.2364Z" fill="#FFA000"/>
<path d="M5.40185 12.6225C2.74653 12.6225 0 12.1044 0 11.2376C0 11.194 0.0353475 11.1587 0.0789514 11.1587C0.122555 11.1587 0.157903 11.194 0.157903 11.2376C0.157903 11.8302 2.26495 12.4646 5.40172 12.4646C8.53849 12.4646 10.6454 11.8302 10.6454 11.2376C10.6454 11.194 10.6808 11.1587 10.7244 11.1587C10.768 11.1587 10.8033 11.194 10.8033 11.2376C10.8036 12.1046 8.05717 12.6225 5.40185 12.6225Z" fill="#FFA000"/>
<path d="M5.40185 20.6911C2.74653 20.6911 0 20.173 0 19.3061V9.62396C0 8.75705 2.74653 8.23909 5.40185 8.23909C8.05717 8.23909 10.8036 8.75718 10.8036 9.62396V19.3061C10.8036 20.1731 8.05717 20.6911 5.40185 20.6911ZM5.40185 8.39699C2.26521 8.39699 0.158032 9.03131 0.158032 9.62396V19.3061C0.158032 19.8987 2.26508 20.5332 5.40185 20.5332C8.53862 20.5332 10.6455 19.8987 10.6455 19.3061V9.62396C10.6457 9.03144 8.53862 8.39699 5.40185 8.39699Z" fill="#FFA000"/>
<path d="M0.250552 6.77641C0.0760076 7.47627 2.24691 8.62003 5.09923 9.33124C7.95154 10.0424 10.4054 10.0516 10.5798 9.35175L10.9726 7.77621C11.1471 7.07635 8.97623 5.93259 6.12392 5.22138C3.2716 4.51017 0.81779 4.50101 0.643374 5.20087L0.250552 6.77641Z" fill="#FFD200"/>
<path d="M10.586 9.32723L10.973 7.77619C11.063 7.41446 10.4626 6.87225 9.42737 6.373C9.18716 7.70227 8.76673 8.05098 8.31211 8.24874C7.94948 8.50275 7.76784 9.31381 7.82473 9.81551C7.82473 9.81551 8.51207 9.94736 9.31784 9.90762C9.84676 9.88169 10.516 9.64781 10.586 9.32723Z" fill="#FFB400"/>
<path d="M0.87454 4.93189C0.679612 5.2855 2.74938 6.47441 5.37335 7.1286C7.99732 7.78279 10.2375 7.86006 10.3768 7.30108C10.5162 6.7421 8.50199 5.75856 5.87802 5.10437C3.25405 4.45019 1.00742 4.69078 0.87454 4.93189Z" fill="#FFB400"/>
<path d="M9.26834 8.37412C9.25776 8.37412 9.24718 8.37412 9.2366 8.37412C8.19527 8.37025 6.85877 8.17777 5.47338 7.83229C4.08786 7.48695 2.81741 7.02923 1.89619 6.54392C1.22329 6.18941 0.44655 5.66526 0.56717 5.18175C0.687661 4.69823 1.61689 4.60393 2.38021 4.60303C3.42155 4.6069 4.75805 4.79937 6.14344 5.14485C8.71981 5.78717 11.2594 6.95428 11.0496 7.7954C10.9308 8.27207 10.0229 8.37412 9.26834 8.37412ZM2.34964 4.76093C1.40029 4.76093 0.792156 4.93199 0.7203 5.21993C0.647798 5.51097 1.11493 5.95372 1.96985 6.4042C2.88024 6.88385 4.13804 7.33666 5.51157 7.67917C6.88509 8.02155 8.2083 8.21234 9.23725 8.21621C10.201 8.22034 10.8239 8.04825 10.8964 7.75721C11.0397 7.18224 9.14875 6.05692 6.10512 5.29811C4.7316 4.95573 3.40839 4.76493 2.37944 4.76106C2.36951 4.76093 2.35957 4.76093 2.34964 4.76093Z" fill="#FFA000"/>
<path d="M8.87569 9.94966C8.86499 9.94966 8.85441 9.94966 8.84383 9.94966C7.80263 9.94579 6.466 9.75344 5.08061 9.40784C2.50411 8.76552 -0.0354958 7.59841 0.174267 6.75729L0.567089 5.18175C0.68758 4.69823 1.61913 4.60316 2.38013 4.60303C3.42147 4.6069 4.75796 4.79937 6.14335 5.14485C8.71972 5.78717 11.2593 6.95428 11.0496 7.7954L10.6567 9.37094C10.5379 9.84762 9.63012 9.94966 8.87569 9.94966ZM0.327526 6.79548C0.184201 7.37045 2.07516 8.49577 5.11879 9.25458C6.49231 9.59696 7.81553 9.78776 8.84447 9.79163C9.81395 9.79163 10.4311 9.62379 10.5036 9.33263L10.8964 7.75708C11.0398 7.18211 9.1488 6.05679 6.10517 5.29798C4.73165 4.9556 3.40844 4.7648 2.37949 4.76093C2.36955 4.76093 2.35949 4.76093 2.34969 4.76093C1.40034 4.76093 0.792204 4.93199 0.720348 5.21993L0.327526 6.79548Z" fill="#FFA000"/>
<path d="M0.51527 4.20236C0.64234 4.91228 3.09112 5.06811 5.98485 4.55041C8.87857 4.03272 11.1215 3.03744 10.9944 2.32739L10.7084 0.729011C10.5813 0.0190937 8.13253 -0.136745 5.23881 0.380954C2.34508 0.898654 0.102194 1.89393 0.229265 2.60385L0.51527 4.20236Z" fill="#FFD200"/>
<path d="M2.56533 3.33303C1.23361 3.33303 0.241167 3.11694 0.151896 2.61795C-0.000846967 1.76445 2.61139 0.770848 5.22517 0.303202C7.83895 -0.164443 10.6336 -0.138126 10.7863 0.715117C10.939 1.56849 8.32672 2.56209 5.71294 3.02974C4.62774 3.22389 3.51094 3.33303 2.56533 3.33303ZM8.36426 0.15175C7.50779 0.15175 6.44801 0.244892 5.25303 0.458654C2.16529 1.01106 0.202982 2.00672 0.307218 2.58996C0.411713 3.17332 2.59758 3.42669 5.6852 2.87428C8.77295 2.32188 10.7353 1.32622 10.631 0.742983C10.5669 0.385508 9.72063 0.15175 8.36426 0.15175Z" fill="#FFA000"/>
<path d="M2.85084 4.93141C1.51911 4.93141 0.526674 4.71532 0.437402 4.21633L0.151397 2.61795C-0.00121677 1.76445 2.61102 0.770847 5.2248 0.303202C7.83858 -0.164443 10.6332 -0.138126 10.786 0.715117L11.072 2.3135C11.2246 3.16687 8.61236 4.16047 5.99857 4.62811C4.91338 4.8224 3.79645 4.93141 2.85084 4.93141ZM0.592854 4.18846C0.697348 4.77183 2.88322 5.02519 5.97084 4.47279C9.05859 3.92039 11.0209 2.92472 10.9167 2.34149L10.6306 0.743111C10.5263 0.159877 8.34041 -0.0934899 5.25266 0.458783C2.16492 1.01118 0.202612 2.00685 0.306849 2.59008L0.592854 4.18846Z" fill="#FFA000"/>
<path d="M16.2618 21.8421C20.8614 21.8421 24.59 18.1134 24.59 13.5138C24.59 8.91429 20.8614 5.18562 16.2618 5.18562C11.6623 5.18562 7.93359 8.91429 7.93359 13.5138C7.93359 18.1134 11.6623 21.8421 16.2618 21.8421Z" fill="#FFD200"/>
<path d="M16.262 19.6416C19.6463 19.6416 22.3898 16.8981 22.3898 13.5139C22.3898 10.1296 19.6463 7.38609 16.262 7.38609C12.8778 7.38609 10.1343 10.1296 10.1343 13.5139C10.1343 16.8981 12.8778 19.6416 16.262 19.6416Z" fill="#FFB400"/>
<path d="M16.2623 19.7918C12.8007 19.7918 9.98438 16.9755 9.98438 13.5137C9.98438 10.0521 12.8007 7.23579 16.2623 7.23579C19.724 7.23579 22.5404 10.052 22.5404 13.5137C22.5404 16.9755 19.724 19.7918 16.2623 19.7918ZM16.2623 7.5516C12.9749 7.5516 10.3003 10.2261 10.3003 13.5136C10.3003 16.801 12.9749 19.4757 16.2623 19.4757C19.5498 19.4757 22.2244 16.8012 22.2244 13.5136C22.2244 10.2263 19.5499 7.5516 16.2623 7.5516Z" fill="#FFA000"/>
<path d="M16.2621 22C11.5828 22 7.77588 18.1931 7.77588 13.5138C7.77588 8.8345 11.5827 5.02768 16.2621 5.02768C20.9413 5.02768 24.7482 8.8345 24.7482 13.5138C24.7484 18.1931 20.9414 22 16.2621 22ZM16.2621 5.34348C11.757 5.34348 8.09181 9.00866 8.09181 13.5138C8.09181 18.0189 11.7571 21.6841 16.2621 21.6841C20.7671 21.6841 24.4323 18.0189 24.4323 13.5138C24.4323 9.00866 20.7673 5.34348 16.2621 5.34348Z" fill="#FFA000"/>
<path d="M16.0659 21.4005C15.9531 21.398 15.8646 21.303 15.8702 21.1903L15.9193 20.1896C15.9242 20.0893 16.0082 20.0111 16.1087 20.0133C16.2108 20.0156 16.2916 20.1 16.2896 20.2019L16.2701 21.2045C16.2679 21.3152 16.1764 21.4029 16.0659 21.4005ZM17.5854 21.0896L17.4105 20.0827C17.3948 19.9921 17.455 19.9069 17.5452 19.8887C17.5466 19.8884 17.5479 19.8882 17.5493 19.8879C17.6395 19.8697 17.728 19.9252 17.7485 20.0148L17.9757 21.0113C18.0002 21.1186 17.9325 21.2266 17.8245 21.2484C17.8218 21.2489 17.8192 21.2494 17.8165 21.2499C17.7085 21.2716 17.6043 21.1981 17.5854 21.0896ZM14.3209 21.1594C14.3194 21.159 14.318 21.1586 14.3164 21.1582C14.209 21.131 14.1463 21.019 14.1762 20.9123L14.4516 19.93C14.4765 19.8412 14.568 19.79 14.6574 19.8127C14.6588 19.8131 14.6601 19.8133 14.6615 19.8137C14.7509 19.8364 14.8069 19.9248 14.7865 20.0147L14.5614 21.0097C14.5368 21.118 14.4284 21.1866 14.3209 21.1594ZM19.2366 20.6053L18.841 19.663C18.8054 19.5783 18.845 19.4817 18.9289 19.4439C18.9299 19.4434 18.931 19.443 18.932 19.4424C19.0158 19.4045 19.1145 19.4387 19.1545 19.5217L19.599 20.442C19.6468 20.5412 19.6049 20.6616 19.5046 20.707C19.5023 20.708 19.5001 20.709 19.4978 20.7101C19.3972 20.7552 19.2791 20.7068 19.2366 20.6053ZM12.6681 20.5355C12.6665 20.5346 12.6648 20.5338 12.6632 20.5329C12.5647 20.4822 12.5287 20.3592 12.5818 20.2619L13.0708 19.3663C13.1149 19.2854 13.2154 19.256 13.2974 19.2982C13.2988 19.2989 13.3001 19.2996 13.3015 19.3003C13.3836 19.3423 13.4183 19.441 13.3783 19.5241L12.9359 20.4435C12.8878 20.5434 12.7668 20.5861 12.6681 20.5355ZM20.737 19.7651L20.1412 18.9347C20.0875 18.86 20.1047 18.7569 20.1779 18.7014C20.1791 18.7005 20.1801 18.6998 20.1813 18.6989C20.2546 18.6433 20.3584 18.6547 20.4158 18.7266L21.0539 19.525C21.1226 19.6111 21.1086 19.7377 21.0209 19.8043C21.0188 19.8059 21.0167 19.8074 21.0148 19.809C20.9269 19.8753 20.8012 19.8545 20.737 19.7651ZM11.1969 19.5589C11.1957 19.5579 11.1945 19.5569 11.1932 19.5558C11.1083 19.4846 11.1006 19.3565 11.174 19.2735L11.8495 18.5088C11.9105 18.4397 12.015 18.4334 12.0857 18.4927C12.0868 18.4936 12.0879 18.4946 12.089 18.4955C12.1596 18.5548 12.1716 18.6587 12.1142 18.7309L11.4786 19.5289C11.4094 19.6154 11.2818 19.63 11.1969 19.5589ZM22.0173 18.6088L21.2522 17.9311C21.1833 17.8701 21.1772 17.7659 21.2364 17.6955C21.2375 17.6942 21.2385 17.693 21.2395 17.6917C21.2987 17.6213 21.4025 17.6094 21.4744 17.6668L22.2731 18.3044C22.3592 18.3731 22.3735 18.4997 22.3027 18.584C22.301 18.586 22.2994 18.5879 22.2977 18.5899C22.2269 18.6744 22.0997 18.6818 22.0173 18.6088ZM9.97965 18.2818C9.97862 18.2805 9.97759 18.2791 9.97669 18.2778C9.90973 18.1895 9.9305 18.0629 10.0204 17.9981L10.8485 17.4021C10.9233 17.3483 11.0267 17.3652 11.0824 17.4386C11.0832 17.4395 11.0838 17.4405 11.0846 17.4414C11.1403 17.5148 11.1291 17.6188 11.0571 17.6765L10.2609 18.3146C10.1743 18.384 10.0467 18.37 9.97965 18.2818ZM23.0075 17.2019L22.1109 16.7114C22.0302 16.6673 22.001 16.5669 22.0432 16.4851C22.044 16.4836 22.0449 16.4819 22.0457 16.4804C22.0877 16.3986 22.1863 16.364 22.2691 16.4039L23.1897 16.8479C23.2889 16.8958 23.3311 17.016 23.2806 17.1139C23.2794 17.1163 23.2782 17.1187 23.2769 17.1211C23.2265 17.219 23.1042 17.2548 23.0075 17.2019ZM9.07558 16.7662C9.07506 16.7649 9.07442 16.7638 9.0739 16.7625C9.02811 16.6615 9.07648 16.5427 9.17866 16.4994L10.1183 16.102C10.2032 16.0661 10.3002 16.1056 10.3383 16.1896C10.3388 16.1906 10.3392 16.1916 10.3397 16.1927C10.3778 16.2767 10.3436 16.3756 10.2606 16.4158L9.34249 16.8608C9.24264 16.9092 9.12138 16.8672 9.07558 16.7662ZM23.6584 15.6075L22.6763 15.331C22.5876 15.3061 22.5367 15.2148 22.5594 15.1255C22.5598 15.124 22.5601 15.1224 22.5605 15.121C22.5832 15.0317 22.6716 14.9759 22.7614 14.9964L23.7563 15.2227C23.8644 15.2473 23.933 15.3559 23.9057 15.4634C23.9053 15.4648 23.905 15.4661 23.9046 15.4675C23.8772 15.5749 23.7651 15.6374 23.6584 15.6075ZM8.5335 15.0911C8.5326 15.0866 8.53169 15.0821 8.53079 15.0775C8.50938 14.9712 8.58149 14.8686 8.68831 14.8498L9.70319 14.6713C9.79092 14.6558 9.87361 14.714 9.89115 14.8013C9.89219 14.8064 9.89322 14.8114 9.89425 14.8164C9.91192 14.9036 9.85839 14.9893 9.77169 15.0092L8.76739 15.2397C8.6616 15.2638 8.55517 15.1973 8.5335 15.0911ZM23.9359 13.9103L22.9344 13.8601C22.834 13.8551 22.7556 13.7712 22.7577 13.6707C22.7577 13.6691 22.7578 13.6675 22.7578 13.6658C22.7598 13.5644 22.8424 13.4834 22.9438 13.4834H23.9464C24.058 13.4834 24.1477 13.5745 24.1455 13.6861C24.1452 13.696 24.1451 13.706 24.1449 13.716C24.1424 13.828 24.0477 13.916 23.9359 13.9103ZM8.37895 13.3284C8.37895 13.3266 8.37908 13.3247 8.37908 13.3229C8.3814 13.2133 8.47351 13.1271 8.58304 13.1325L9.61108 13.183C9.69997 13.1874 9.76782 13.2624 9.76563 13.3514C9.76563 13.3525 9.76563 13.3536 9.7655 13.3547C9.76344 13.443 9.693 13.5144 9.60463 13.5153L8.57543 13.5265C8.46577 13.5279 8.37663 13.4381 8.37895 13.3284ZM22.6292 12.2068C22.6289 12.2055 22.6286 12.2043 22.6284 12.203C22.6099 12.1129 22.6652 12.0241 22.7548 12.0033L23.7488 11.7735C23.8569 11.7484 23.9661 11.8164 23.9882 11.925C23.9886 11.9267 23.9889 11.9283 23.9893 11.9299C24.0115 12.0387 23.9377 12.144 23.8284 12.1633L22.8237 12.3409C22.7331 12.3569 22.6476 12.297 22.6292 12.2068ZM9.76537 12.0459L8.76003 11.8202C8.65425 11.7964 8.58691 11.6904 8.61335 11.5852C8.61451 11.5805 8.61581 11.5757 8.61697 11.5709C8.64354 11.4658 8.7532 11.4045 8.85756 11.4338L9.84961 11.7123C9.93527 11.7363 9.98468 11.8245 9.96275 11.9107C9.96159 11.9155 9.9603 11.9203 9.95914 11.9249C9.93747 12.0112 9.85219 12.0654 9.76537 12.0459ZM22.1802 10.8246C22.1797 10.8236 22.1793 10.8226 22.1788 10.8215C22.1406 10.7378 22.1745 10.6388 22.2574 10.5986L23.1747 10.1521C23.2745 10.1036 23.396 10.1454 23.4419 10.2463C23.4424 10.2476 23.4431 10.2487 23.4436 10.25C23.4895 10.351 23.4413 10.4701 23.3391 10.5135L22.3998 10.9118C22.3152 10.9478 22.2184 10.9085 22.1802 10.8246ZM10.2486 10.636L9.32921 10.1949C9.2291 10.147 9.18627 10.0257 9.23684 9.92687C9.23774 9.92519 9.23851 9.92351 9.23942 9.92184C9.29012 9.82302 9.41358 9.7869 9.51097 9.84018L10.406 10.329C10.487 10.3732 10.5163 10.4737 10.4743 10.5559C10.4737 10.5569 10.4732 10.558 10.4727 10.5589C10.4307 10.641 10.3318 10.676 10.2486 10.636ZM21.4338 9.57804C21.4329 9.57688 21.432 9.57572 21.4312 9.57455C21.3754 9.50141 21.3865 9.39743 21.4582 9.33976L22.2534 8.70041C22.3398 8.63088 22.4675 8.64468 22.5349 8.73279C22.5358 8.73395 22.5365 8.73512 22.5374 8.73615C22.6047 8.82439 22.5841 8.9512 22.4942 9.01622L21.6674 9.61403C21.5929 9.66795 21.4897 9.65131 21.4338 9.57804ZM11.0407 9.37498L10.2423 8.74053C10.1554 8.67151 10.1407 8.5438 10.2119 8.45866C10.2129 8.45749 10.2138 8.45633 10.2148 8.45517C10.2862 8.37003 10.4144 8.36229 10.4977 8.43569L11.2622 9.11052C11.3314 9.17154 11.3378 9.27616 11.2785 9.34699C11.2777 9.34789 11.2771 9.34879 11.2763 9.34957C11.2171 9.42039 11.113 9.43252 11.0407 9.37498ZM20.4277 8.52561C20.4268 8.52484 20.426 8.52419 20.4251 8.52342C20.3543 8.46433 20.3422 8.36035 20.3994 8.28811L21.0326 7.48918C21.1017 7.40197 21.2297 7.38701 21.3151 7.45835C21.3161 7.45925 21.3172 7.46015 21.3182 7.46093C21.4036 7.53227 21.4115 7.66089 21.3379 7.74435L20.6639 8.5091C20.6029 8.57837 20.4985 8.58482 20.4277 8.52561ZM12.0935 8.31701L11.4552 7.52169C11.3857 7.43513 11.3996 7.30728 11.4879 7.24007C11.4889 7.2393 11.49 7.23839 11.4911 7.23762C11.5795 7.17041 11.7063 7.19118 11.7713 7.28109L12.3679 8.10815C12.422 8.18297 12.4051 8.28643 12.3316 8.34229C12.3306 8.34294 12.3297 8.34371 12.3288 8.34436C12.2554 8.40035 12.1513 8.38899 12.0935 8.31701ZM19.214 7.72268C19.213 7.72216 19.2119 7.72165 19.211 7.72113C19.1287 7.67907 19.0938 7.58026 19.1336 7.49692L19.5734 6.57775C19.6215 6.47726 19.7431 6.4343 19.8421 6.48487C19.8433 6.48552 19.8446 6.48616 19.8457 6.48668C19.9449 6.53738 19.9813 6.66109 19.928 6.75888L19.4411 7.65392C19.3969 7.73519 19.2963 7.76473 19.214 7.72268ZM13.3537 7.51537L12.9078 6.59788C12.8593 6.49803 12.9011 6.37651 13.0023 6.33045C13.0035 6.32993 13.0047 6.32929 13.006 6.32877C13.1071 6.28285 13.2262 6.33135 13.2694 6.43353L13.667 7.37295C13.7029 7.4577 13.6635 7.55458 13.5797 7.59264C13.5786 7.59316 13.5776 7.59354 13.5766 7.59406C13.4927 7.63225 13.3939 7.59819 13.3537 7.51537ZM17.8529 7.21117C17.8518 7.21091 17.8507 7.21066 17.8496 7.2104C17.7604 7.18795 17.7042 7.09984 17.7244 7.01005L17.9469 6.01503C17.9712 5.90641 18.08 5.83713 18.188 5.86422C18.1893 5.86461 18.1907 5.86487 18.192 5.86526C18.3 5.89248 18.3632 6.00497 18.3332 6.1123L18.0581 7.09416C18.0332 7.18253 17.942 7.23362 17.8529 7.21117ZM14.7588 7.01895L14.5296 6.02548C14.5045 5.91725 14.5726 5.80798 14.6815 5.78579C14.6828 5.78553 14.6842 5.78527 14.6855 5.78502C14.7944 5.76296 14.8998 5.83675 14.9191 5.94614L15.0968 6.95019C15.1129 7.04114 15.0527 7.1268 14.9622 7.14525C14.9611 7.14551 14.96 7.14564 14.9589 7.14589C14.8684 7.16421 14.7794 7.10887 14.7588 7.01895ZM16.4119 7.01792C16.4103 7.01792 16.4089 7.01792 16.4074 7.01779C16.314 7.01599 16.2393 6.93987 16.2393 6.84647V5.82565C16.2393 5.71625 16.3288 5.62814 16.4382 5.63021C16.44 5.63021 16.4418 5.63034 16.4436 5.63034C16.5538 5.63253 16.6405 5.72503 16.6352 5.83507L16.5863 6.85473C16.5818 6.94736 16.5045 7.01973 16.4119 7.01792Z" fill="#FFA000"/>
<path d="M16.6622 15.9997H15.3067L14.492 14.6516C14.2748 14.222 13.9505 13.8995 13.4471 13.9939V15.9997H12.2671V10.7607H14.1377C16.3735 10.5285 16.6731 13.1302 14.8684 13.6432V13.6577C15.5821 13.9489 16.2114 15.4198 16.6622 15.9997ZM13.4471 11.6447V13.1025C14.0189 13.158 14.8205 13.0599 14.8026 12.3316C14.8663 11.6201 14.0084 11.6131 13.4471 11.6447Z" fill="#FFF8A0"/>
<path d="M19.0148 15.9704V16.7633H18.4813V15.9923C17.9868 15.9899 17.5266 15.8778 17.1003 15.6563V14.6442C17.3852 14.8831 18.1004 15.1119 18.4813 15.1302V13.8003C16.5419 13.3647 16.5123 10.9541 18.4813 10.7606V10.081H19.0148V10.7459C19.5286 10.7703 19.9123 10.8531 20.1656 10.9944V11.9808C19.8245 11.7738 19.441 11.647 19.0148 11.6008V12.9855C20.9279 13.4072 21.0492 15.8078 19.0148 15.9704ZM18.4813 12.7735V11.6153C17.7701 11.7341 17.8358 12.5094 18.4813 12.7735ZM19.0148 14.0085V15.1155C19.7297 15.0161 19.6962 14.2436 19.0148 14.0085Z" fill="#FFF8A0"/>
</svg>
